<svg width="90" height="90" viewBox="0 0 90 90" fill="none" xmlns="http://www.w3.org/2000/svg">
<g id="gears">
<g id="Group">
<g id="gear1">
<path id="Vector" opacity="0.6" d="M41.0244 39.0593C40.8119 39.2616 37.9311 38.2858 37.7004 38.4692C37.4697 38.6526 37.9637 41.5255 37.7166 41.6885C37.4696 41.8515 34.8181 40.4016 34.5567 40.5429C34.2953 40.6841 34.2426 43.5948 33.969 43.7132C33.6953 43.8315 31.3583 41.9542 31.0747 42.0487C30.791 42.1433 30.1932 44.9983 29.9018 45.0682C29.6103 45.1381 27.663 42.8937 27.3661 42.9384C27.0692 42.9832 25.9457 45.6907 25.6458 45.7099C25.346 45.7292 23.8508 43.1898 23.5504 43.1834C23.2499 43.177 21.6366 45.6499 21.3379 45.6179C21.0393 45.5859 20.0444 42.8331 19.75 42.7757C19.4556 42.7183 17.4044 44.8772 17.1166 44.795C16.8287 44.7127 16.3661 41.835 16.0871 41.7285C15.8082 41.6219 13.3851 43.3975 13.1173 43.2676C12.8495 43.1377 12.934 40.2277 12.6795 40.0754C12.425 39.9231 9.70793 41.2583 9.4688 41.0849C9.22966 40.9115 9.85856 38.0626 9.63672 37.8696C9.41487 37.6765 6.49103 38.5282 6.28828 38.317C6.0855 38.1058 7.2386 35.4095 7.05649 35.1819C6.87442 34.9542 3.83785 35.2952 3.67793 35.0529C3.51802 34.8106 5.15822 32.3537 5.02175 32.0988C4.8853 31.8438 1.83357 31.6631 1.72169 31.3975C1.60979 31.1319 3.68441 28.9934 3.59797 28.7193C3.51153 28.4452 0.542729 27.7486 0.48244 27.4683C0.42215 27.1879 2.86449 25.4365 2.83084 25.1521C2.79719 24.8677 0.00675708 23.6776 1.24669e-05 23.3915C-0.0067314 23.1054 2.7248 21.7973 2.74503 21.5118C2.76527 21.2263 0.242856 19.5809 0.289881 19.2983C0.336899 19.0156 3.26988 18.1929 3.34332 17.9154C3.41676 17.6379 1.24346 15.5902 1.34275 15.32C1.44205 15.0499 4.48215 14.739 4.60647 14.4785C4.7308 14.218 2.97645 11.8336 3.12479 11.5847C3.27312 11.3359 6.32272 11.5468 6.49388 11.3116C6.66504 11.0763 5.38608 8.43208 5.57871 8.21242C5.77134 7.99277 8.73234 8.71873 8.94487 8.5164C9.1574 8.31406 8.39489 5.49485 8.62561 5.31148C8.85633 5.12808 11.6336 6.34577 11.8807 6.18281C12.1277 6.01984 11.9062 3.11635 12.1676 2.97511C12.429 2.83387 14.9333 4.50418 15.2069 4.38581C15.4806 4.26747 15.8071 1.37297 16.0908 1.27843C16.3745 1.18392 18.5253 3.25309 18.8168 3.18317C19.1082 3.11325 19.9723 0.320767 20.2692 0.275995C20.566 0.231223 22.2942 2.63281 22.5941 2.61354C22.894 2.59429 24.2679 -0.00640966 24.5684 1.18722e-05C24.8689 0.00643341 26.1189 2.6632 26.4175 2.69524C26.7162 2.72727 28.5558 0.401929 28.8503 0.45933C29.1447 0.516732 29.8764 3.34331 30.1642 3.42562C30.4521 3.50791 32.6982 1.53269 32.9772 1.63922C33.2561 1.74575 33.4459 4.65131 33.7137 4.7812C33.9815 4.91112 36.562 3.34948 36.8165 3.50175C37.071 3.65399 36.7128 6.54513 36.9519 6.71847C37.1911 6.89182 40.023 5.79399 40.2448 5.98706C40.4666 6.18012 39.572 8.9639 39.7748 9.1751C39.9776 9.38632 42.9699 8.78756 43.1519 9.01522C43.334 9.2429 41.9317 11.8299 42.0916 12.0722C42.2515 12.3145 45.308 12.234 45.4445 12.489C45.5809 12.744 43.716 15.0509 43.8279 15.3165C43.9398 15.5821 46.9622 16.0226 47.0487 16.2966C47.1351 16.5707 44.8675 18.5236 44.9278 18.8039C44.9881 19.0843 47.8793 20.0315 47.913 20.3158C47.9466 20.6002 45.3493 22.1362 45.356 22.4222C45.3627 22.7083 48.0299 24.1318 48.0097 24.4173C47.9894 24.7029 45.1458 25.7726 45.0987 26.0552C45.0517 26.3379 47.4091 28.1919 47.3356 28.4694C47.2622 28.7469 44.2636 29.316 44.1643 29.5861C44.065 29.8562 46.0368 32.0812 45.9125 32.3418C45.7882 32.6023 42.731 32.6525 42.5827 32.9014C42.4343 33.1503 43.9571 35.6747 43.7859 35.9099C43.6148 36.1452 40.5973 35.6748 40.4047 35.8945C40.2121 36.1142 41.237 38.8569 41.0244 39.0593L41.0244 39.0593Z" fill="#7F00FF" fill-opacity="0.75"/>
<path id="Vector_2" d="M24.1719 26.6546C26.4401 26.6546 28.279 24.9039 28.279 22.7442C28.279 20.5846 26.4401 18.8339 24.1719 18.8339C21.9036 18.8339 20.0648 20.5846 20.0648 22.7442C20.0648 24.9039 21.9036 26.6546 24.1719 26.6546Z" fill="white"/>
</g>
<g id="gear2">
<path id="Vector_3" opacity="0.6" d="M78.6505 79.1941C78.3052 79.5229 73.6247 77.9374 73.2498 78.2354C72.8749 78.5334 73.6776 83.2012 73.2762 83.4659C72.8748 83.7307 68.5668 81.3751 68.1421 81.6046C67.7174 81.834 67.6317 86.5632 67.1871 86.7555C66.7425 86.9478 62.9455 83.8977 62.4846 84.0513C62.0236 84.2048 61.0524 88.8435 60.5789 88.9571C60.1054 89.0707 56.9415 85.4241 56.4591 85.4968C55.9768 85.5695 54.1513 89.9686 53.6641 89.9998C53.1768 90.0311 50.7476 85.9052 50.2594 85.8948C49.7712 85.8844 47.15 89.9023 46.6648 89.8503C46.1795 89.7982 44.5631 85.3257 44.0847 85.2324C43.6063 85.1391 40.2737 88.6469 39.806 88.5132C39.3383 88.3795 38.5867 83.7041 38.1335 83.5309C37.6803 83.3578 33.7434 86.2427 33.3083 86.0316C32.8732 85.8206 33.0105 81.0925 32.597 80.8451C32.1834 80.5977 27.7688 82.767 27.3803 82.4853C26.9918 82.2036 28.0136 77.5748 27.6531 77.2611C27.2927 76.9474 22.5421 78.3313 22.2127 77.9881C21.8833 77.6449 23.7568 73.2642 23.4609 72.8943C23.1651 72.5243 18.2314 73.0784 17.9715 72.6847C17.7117 72.291 20.3766 68.2992 20.1549 67.885C19.9332 67.4707 14.9749 67.1771 14.7931 66.7456C14.6113 66.3141 17.9821 62.8395 17.8416 62.3941C17.7012 61.9488 12.8776 60.817 12.7796 60.3615C12.6817 59.906 16.6499 57.0603 16.5952 56.5983C16.5405 56.1363 12.0068 54.2026 11.9958 53.7378C11.9849 53.273 16.4229 51.1476 16.4558 50.6837C16.4887 50.2198 12.3904 47.5464 12.4668 47.0872C12.5432 46.628 17.3085 45.2913 17.4279 44.8405C17.5472 44.3896 14.0161 41.0625 14.1774 40.6236C14.3388 40.1847 19.2782 39.6796 19.4802 39.2563C19.6822 38.833 16.8318 34.9591 17.0728 34.5547C17.3138 34.1503 22.2687 34.493 22.5468 34.1108C22.8249 33.7286 20.7469 29.4323 21.0598 29.0755C21.3728 28.7186 26.1837 29.8981 26.529 29.5693C26.8743 29.2406 25.6354 24.6601 26.0103 24.3621C26.3852 24.0642 30.8976 26.0426 31.299 25.7778C31.7004 25.5131 31.3404 20.7956 31.7652 20.5661C32.1899 20.3366 36.2588 23.0505 36.7034 22.8582C37.148 22.6659 37.6786 17.963 38.1395 17.8094C38.6004 17.6558 42.0949 21.0178 42.5685 20.9041C43.042 20.7905 44.446 16.2534 44.9283 16.1807C45.4106 16.108 48.2185 20.0099 48.7057 19.9786C49.1929 19.9474 51.4253 15.7219 51.9135 15.7323C52.4017 15.7427 54.4326 20.0593 54.9179 20.1114C55.4032 20.1634 58.3921 16.3853 58.8705 16.4786C59.3489 16.5718 60.5376 21.1643 61.0053 21.2981C61.473 21.4318 65.1224 18.2225 65.5757 18.3956C66.0289 18.5687 66.3373 23.2895 66.7724 23.5006C67.2075 23.7116 71.4001 21.1744 71.8136 21.4218C72.2271 21.6691 71.6452 26.3665 72.0337 26.6482C72.4223 26.9298 77.0234 25.1461 77.3838 25.4598C77.7443 25.7735 76.2908 30.2964 76.6202 30.6396C76.9497 30.9828 81.8114 30.0099 82.1072 30.3798C82.403 30.7497 80.1247 34.9529 80.3845 35.3466C80.6443 35.7403 85.6103 35.6096 85.832 36.0238C86.0537 36.4381 83.0237 40.1864 83.2055 40.6179C83.3873 41.0494 88.298 41.7651 88.4385 42.2104C88.5789 42.6557 84.8947 45.8286 84.9926 46.2841C85.0905 46.7396 89.7881 48.2786 89.8428 48.7405C89.8975 49.2025 85.6773 51.6982 85.6883 52.163C85.6993 52.6278 90.0327 54.9407 89.9999 55.4045C89.967 55.8684 85.3467 57.6065 85.2703 58.0657C85.1939 58.5249 89.024 61.5373 88.9047 61.9881C88.7854 62.439 83.9133 63.3637 83.7521 63.8025C83.5908 64.2414 86.7944 67.8564 86.5924 68.2798C86.3905 68.7031 81.4233 68.7847 81.1823 69.189C80.9413 69.5934 83.4154 73.695 83.1373 74.0772C82.8592 74.4594 77.9566 73.6952 77.6436 74.0521C77.3307 74.409 78.9958 78.8653 78.6505 79.1941L78.6505 79.1941Z" fill="#7F00FF" fill-opacity="0.75"/>
<path id="Vector_4" d="M51.2692 59.0395C54.9546 59.0395 57.9423 56.195 57.9423 52.6861C57.9423 49.1773 54.9546 46.3328 51.2692 46.3328C47.5838 46.3328 44.5962 49.1773 44.5962 52.6861C44.5962 56.195 47.5838 59.0395 51.2692 59.0395Z" fill="white"/>
</g>
</g>
</g>
</svg>
