<svg width="272.17" height="203.3" version="1.1" viewBox="0 0 386.36 316.96" xmlns="http://www.w3.org/2000/svg" xmlns:xlink="http://www.w3.org/1999/xlink">
 <defs>
  <linearGradient id="linear-gradient" x1="347.86" x2="335.11" y1="212.24" y2="194.73" gradientUnits="userSpaceOnUse">
   <stop stop-color="#fff" stop-opacity="0" offset="0"/>
   <stop stop-color="gray" offset=".99"/>
  </linearGradient>
  <linearGradient id="linearGradient1410" x1="347.86" x2="335.11" y1="212.24" y2="194.73" gradientUnits="userSpaceOnUse" xlink:href="#linear-gradient"/>
  <linearGradient id="linearGradient1412" x1="-87.08" x2="-53.92" y1="275.87" y2="248.14" gradientTransform="matrix(-1,0,0,1,159.53,0)" xlink:href="#linear-gradient"/>
  <linearGradient id="linearGradient1414" x1="-106.01" x2="-33.69" y1="224.71" y2="164.22" gradientTransform="matrix(-1,0,0,1,159.53,0)" xlink:href="#linear-gradient"/>
  <linearGradient id="linearGradient1416" x1="11.23" x2="57.67" y1="216.93" y2="178.09" gradientTransform="matrix(-1,0,0,1,159.53,0)" xlink:href="#linear-gradient"/>
 </defs>
 <g transform="translate(-7.0565 -64.679)" style="isolation:isolate">
  <g data-name="Layer 2">
   <path id="coin-shadow" d="m194.76 379.27-179.72-106.22c-5.72-3.21-10.63-8.49-5.05-11.94l180.37-104c2.71-1.68 6.82-2.78 9.57-1.18l188.66 109.51c5.72 3.32 6.75 12.6 1 15.93l-171.11 97.73a23.9 23.9 0 0 1-23.72 0.17z" style="fill:#e4e4e4"/>
   <path id="coin-platform" d="m194.28 288.83-179.72-106.22c-5.72-3.21-10.63-8.49-5.05-11.94l180.37-104c2.71-1.68 6.82-2.78 9.57-1.18l188.66 109.51c5.72 3.32 6.75 12.6 1 15.93l-171.11 97.73a23.9 23.9 0 0 1-23.72 0.17z" style="fill:#333C5E"/>
   <path d="m370.52 202.38-22-13.58-39.52 11 31 18.16a168.59 168.59 0 0 1 30.52-15.58z" style="fill:url(#linearGradient1410);mix-blend-mode:multiply;opacity:.91"/>
   <polyline points="177.27 262.42 220.84 287.96 274.95 255.04 252.31 240.31" style="fill:url(#linearGradient1412);mix-blend-mode:multiply;opacity:.91"/>
   <polyline points="140.88 163.6 262.28 237.59 300.79 211.04 186.49 150.9" style="fill:url(#linearGradient1414);mix-blend-mode:multiply;opacity:.91"/>
   <polyline points="66.05 180.32 143.46 225.71 173.13 205.53 111.67 167.62" style="fill:url(#linearGradient1416);mix-blend-mode:multiply;opacity:.91"/>
   <ellipse cx="324.6" cy="189.67" rx="23.63" ry="13.84" style="fill:#ff912e"/>
   <polygon points="300.98 185.67 303.55 188.87 300.98 189.67" style="fill:#e0944f"/>
   <polygon points="347.43 186.46 348.23 185.67 348.23 189.67 345.23 189.67" style="fill:#e0944f"/>
   <ellipse cx="324.6" cy="185.67" rx="23.63" ry="13.84" style="fill:#ffb92c"/>
   <path d="m336.59 183.82a1.85 1.85 0 0 1 0.19 1l-0.09 0.37h-4.31a2 2 0 0 0 0.08-0.37 1.61 1.61 0 0 0-0.26-0.79 2.36 2.36 0 0 0-1-1 4.72 4.72 0 0 0-2-0.53 4.37 4.37 0 0 0-1.93 0.3q-0.91 0.39-0.7 1a3.74 3.74 0 0 0 0.92 1.35 16.42 16.42 0 0 1 1.31 1.5 1.57 1.57 0 0 1 0.23 1.66 3.72 3.72 0 0 1-2.1 1.63 12.41 12.41 0 0 1-4.57 1 14.62 14.62 0 0 1-5-0.71l-2.48 1.07-2.97-1.3 2.41-1a5.44 5.44 0 0 1-1.16-1 3.07 3.07 0 0 1-0.57-1 3.17 3.17 0 0 1-0.15-0.78 1.69 1.69 0 0 1 0-0.54l0.09-0.21h4.31a3.44 3.44 0 0 0-0.1 0.44 1.84 1.84 0 0 0 0.35 1 3.24 3.24 0 0 0 1.43 1.22 6.13 6.13 0 0 0 2.51 0.65 5.22 5.22 0 0 0 2.31-0.37q0.9-0.39 0.67-1a3.73 3.73 0 0 0-1-1.35 13.81 13.81 0 0 1-1.32-1.5 1.55 1.55 0 0 1-0.18-1.67 4 4 0 0 1 2.2-1.66 11.87 11.87 0 0 1 4.39-0.86 12.66 12.66 0 0 1 4.68 0.73l2.48-1.06 2.71 1.47-2.48 1.07a3.53 3.53 0 0 1 1.1 1.24z" style="fill:#ea8b24"/>
   <ellipse cx="324.65" cy="185.84" rx="19.83" ry="11.62" stroke-miterlimit="10" style="fill:none;stroke-miterlimit:10;stroke-width:2;stroke:#f7931e"/>
   <ellipse cx="324.6" cy="184.63" rx="23.63" ry="13.84" style="fill:#ff912e"/>
   <polygon points="300.98 180.63 303.55 183.82 300.98 184.63" style="fill:#e0944f"/>
   <polygon points="347.43 181.42 348.23 180.63 348.23 184.63 345.23 184.63" style="fill:#e0944f"/>
   <ellipse cx="324.6" cy="180.63" rx="23.63" ry="13.84" style="fill:#ffb92c"/>
   <path d="m336.59 178.78a1.85 1.85 0 0 1 0.19 1l-0.09 0.37h-4.31a2 2 0 0 0 0.08-0.37 1.61 1.61 0 0 0-0.26-0.79 2.36 2.36 0 0 0-1-1 4.72 4.72 0 0 0-2-0.53 4.37 4.37 0 0 0-1.93 0.3q-0.91 0.39-0.7 1a3.74 3.74 0 0 0 0.92 1.35 16.42 16.42 0 0 1 1.31 1.5 1.57 1.57 0 0 1 0.23 1.66 3.72 3.72 0 0 1-2.1 1.63 12.41 12.41 0 0 1-4.57 1 14.62 14.62 0 0 1-5-0.71l-2.48 1.07-2.91-1.42 2.41-1a5.44 5.44 0 0 1-1.16-1 3.07 3.07 0 0 1-0.57-1 3.17 3.17 0 0 1-0.15-0.78 1.69 1.69 0 0 1 0-0.54l0.09-0.21h4.31a3.44 3.44 0 0 0-0.1 0.44 1.84 1.84 0 0 0 0.35 1 3.24 3.24 0 0 0 1.43 1.22 6.13 6.13 0 0 0 2.51 0.65 5.22 5.22 0 0 0 2.31-0.37q0.9-0.39 0.67-1a3.73 3.73 0 0 0-1-1.35 13.81 13.81 0 0 1-1.32-1.5 1.55 1.55 0 0 1-0.18-1.67 4 4 0 0 1 2.2-1.66 11.87 11.87 0 0 1 4.39-0.86 12.66 12.66 0 0 1 4.68 0.73l2.48-1.06 2.71 1.47-2.48 1.07a3.53 3.53 0 0 1 1.04 1.36z" style="fill:#ea8b24"/>
   <ellipse cx="324.65" cy="180.8" rx="19.83" ry="11.62" stroke-miterlimit="10" style="fill:none;stroke-miterlimit:10;stroke-width:2;stroke:#f7931e"/>
   <ellipse cx="324.6" cy="179.84" rx="23.63" ry="13.84" style="fill:#ff912e"/>
   <polygon points="300.98 175.84 303.55 179.03 300.98 179.84" style="fill:#e0944f"/>
   <polygon points="347.43 176.63 348.23 175.84 348.23 179.84 345.23 179.84" style="fill:#e0944f"/>
   <ellipse cx="324.6" cy="175.84" rx="23.63" ry="13.84" style="fill:#ffb92c"/>
   <path d="m336.59 174a1.85 1.85 0 0 1 0.19 1l-0.09 0.37h-4.31a2 2 0 0 0 0.08-0.37 1.61 1.61 0 0 0-0.26-0.79 2.36 2.36 0 0 0-1-1 4.72 4.72 0 0 0-2-0.53 4.37 4.37 0 0 0-1.93 0.3q-0.91 0.39-0.7 1a3.74 3.74 0 0 0 0.92 1.35 16.42 16.42 0 0 1 1.31 1.5 1.57 1.57 0 0 1 0.23 1.66 3.72 3.72 0 0 1-2.1 1.63 12.41 12.41 0 0 1-4.57 1 14.62 14.62 0 0 1-5-0.71l-2.48 1.07-2.91-1.42 2.41-1a5.44 5.44 0 0 1-1.16-1 3.07 3.07 0 0 1-0.57-1 3.17 3.17 0 0 1-0.15-0.78 1.69 1.69 0 0 1 0-0.54l0.09-0.21h4.31a3.44 3.44 0 0 0-0.1 0.44 1.84 1.84 0 0 0 0.35 1 3.24 3.24 0 0 0 1.43 1.22 6.13 6.13 0 0 0 2.51 0.65 5.22 5.22 0 0 0 2.31-0.37q0.9-0.39 0.67-1a3.73 3.73 0 0 0-1-1.35 13.81 13.81 0 0 1-1.32-1.5 1.55 1.55 0 0 1-0.18-1.67 4 4 0 0 1 2.2-1.66 11.87 11.87 0 0 1 4.39-0.86 12.66 12.66 0 0 1 4.68 0.73l2.48-1.06 2.71 1.47-2.48 1.07a3.53 3.53 0 0 1 1.04 1.36z" style="fill:#ea8b24"/>
   <ellipse cx="324.65" cy="176.01" rx="19.83" ry="11.62" stroke-miterlimit="10" style="fill:none;stroke-miterlimit:10;stroke-width:2;stroke:#f7931e"/>
   <ellipse cx="324.6" cy="174.95" rx="23.63" ry="13.84" style="fill:#ff912e"/>
   <polygon points="300.98 170.96 303.55 174.15 300.98 174.95" style="fill:#e0944f"/>
   <polygon points="347.43 171.75 348.23 170.96 348.23 174.95 345.23 174.95" style="fill:#e0944f"/>
   <ellipse cx="324.6" cy="170.96" rx="23.63" ry="13.84" style="fill:#ffb92c"/>
   <path d="m336.59 169.11a1.85 1.85 0 0 1 0.19 1l-0.09 0.37h-4.31a2 2 0 0 0 0.08-0.37 1.61 1.61 0 0 0-0.26-0.79 2.36 2.36 0 0 0-1-1 4.72 4.72 0 0 0-2-0.53 4.37 4.37 0 0 0-1.93 0.3q-0.91 0.39-0.7 1a3.74 3.74 0 0 0 0.92 1.35 16.42 16.42 0 0 1 1.31 1.5 1.57 1.57 0 0 1 0.23 1.66 3.72 3.72 0 0 1-2.1 1.63 12.41 12.41 0 0 1-4.57 1 14.62 14.62 0 0 1-5-0.71l-2.48 1.07-2.91-1.42 2.41-1a5.44 5.44 0 0 1-1.16-1 3.07 3.07 0 0 1-0.57-1 3.17 3.17 0 0 1-0.15-0.78 1.69 1.69 0 0 1 0-0.54l0.09-0.21h4.31a3.44 3.44 0 0 0-0.1 0.44 1.84 1.84 0 0 0 0.35 1 3.24 3.24 0 0 0 1.43 1.22 6.13 6.13 0 0 0 2.51 0.65 5.22 5.22 0 0 0 2.31-0.37q0.9-0.39 0.67-1a3.73 3.73 0 0 0-1-1.35 13.81 13.81 0 0 1-1.32-1.5 1.55 1.55 0 0 1-0.18-1.67 4 4 0 0 1 2.2-1.66 11.87 11.87 0 0 1 4.39-0.86 12.66 12.66 0 0 1 4.68 0.73l2.48-1.06 2.68 1.49-2.48 1.07a3.53 3.53 0 0 1 1.07 1.34z" style="fill:#ea8b24"/>
   <ellipse cx="324.65" cy="171.12" rx="19.83" ry="11.62" stroke-miterlimit="10" style="fill:none;stroke-miterlimit:10;stroke-width:2;stroke:#f7931e"/>
   <ellipse cx="324.42" cy="168.96" rx="23.63" ry="13.84" style="fill:#ff912e"/>
   <polygon points="300.79 164.96 303.36 168.16 300.79 168.96" style="fill:#e0944f"/>
   <polygon points="347.24 165.75 348.05 164.96 348.05 168.96 345.05 168.96" style="fill:#e0944f"/>
   <ellipse cx="324.42" cy="164.96" rx="23.63" ry="13.84" style="fill:#ffb92c"/>
   <path d="m336.4 163.11a1.85 1.85 0 0 1 0.19 1l-0.09 0.37h-4.31a2 2 0 0 0 0.08-0.37 1.61 1.61 0 0 0-0.26-0.79 2.36 2.36 0 0 0-1-1 4.72 4.72 0 0 0-2-0.53 4.37 4.37 0 0 0-1.93 0.3q-0.91 0.39-0.7 1a3.74 3.74 0 0 0 0.92 1.35 16.42 16.42 0 0 1 1.31 1.5 1.57 1.57 0 0 1 0.23 1.66 3.72 3.72 0 0 1-2.1 1.63 12.41 12.41 0 0 1-4.57 1 14.62 14.62 0 0 1-5-0.71l-2.48 1.07-2.91-1.42 2.41-1a5.44 5.44 0 0 1-1.16-1 3.07 3.07 0 0 1-0.57-1 3.17 3.17 0 0 1-0.15-0.78 1.69 1.69 0 0 1 0-0.54l0.09-0.21h4.31a3.44 3.44 0 0 0-0.1 0.44 1.84 1.84 0 0 0 0.35 1 3.24 3.24 0 0 0 1.43 1.22 6.13 6.13 0 0 0 2.51 0.65 5.22 5.22 0 0 0 2.31-0.37q0.9-0.39 0.67-1a3.73 3.73 0 0 0-1-1.35 13.81 13.81 0 0 1-1.32-1.5 1.55 1.55 0 0 1-0.18-1.67 4 4 0 0 1 2.2-1.66 11.87 11.87 0 0 1 4.39-0.86 12.66 12.66 0 0 1 4.68 0.73l2.48-1.06 2.71 1.47-2.48 1.07a3.53 3.53 0 0 1 1.04 1.36z" style="fill:#ea8b24"/>
   <ellipse cx="324.46" cy="165.13" rx="19.83" ry="11.62" stroke-miterlimit="10" style="fill:none;stroke-miterlimit:10;stroke-width:2;stroke:#f7931e"/>
   <ellipse cx="324.42" cy="163.92" rx="23.63" ry="13.84" style="fill:#ff912e"/>
   <polygon points="300.79 159.92 303.36 163.11 300.79 163.92" style="fill:#e0944f"/>
   <polygon points="347.24 160.71 348.05 159.92 348.05 163.92 345.05 163.92" style="fill:#e0944f"/>
   <ellipse cx="324.42" cy="159.92" rx="23.63" ry="13.84" style="fill:#ffb92c"/>
   <path d="m336.4 158.07a1.85 1.85 0 0 1 0.19 1l-0.09 0.37h-4.31a2 2 0 0 0 0.08-0.37 1.61 1.61 0 0 0-0.26-0.79 2.36 2.36 0 0 0-1-1 4.72 4.72 0 0 0-2-0.53 4.37 4.37 0 0 0-1.93 0.3q-0.91 0.39-0.7 1a3.74 3.74 0 0 0 0.92 1.35 16.42 16.42 0 0 1 1.31 1.5 1.57 1.57 0 0 1 0.23 1.66 3.72 3.72 0 0 1-2.1 1.63 12.41 12.41 0 0 1-4.57 1 14.62 14.62 0 0 1-5-0.71l-2.48 1.07-2.91-1.42 2.41-1a5.44 5.44 0 0 1-1.16-1 3.07 3.07 0 0 1-0.57-1 3.17 3.17 0 0 1-0.15-0.78 1.69 1.69 0 0 1 0-0.54l0.09-0.21h4.31a3.44 3.44 0 0 0-0.1 0.44 1.84 1.84 0 0 0 0.35 1 3.24 3.24 0 0 0 1.43 1.22 6.13 6.13 0 0 0 2.51 0.65 5.22 5.22 0 0 0 2.31-0.37q0.9-0.39 0.67-1a3.73 3.73 0 0 0-1-1.35 13.81 13.81 0 0 1-1.32-1.5 1.55 1.55 0 0 1-0.18-1.67 4 4 0 0 1 2.2-1.66 11.87 11.87 0 0 1 4.39-0.86 12.66 12.66 0 0 1 4.68 0.73l2.48-1.06 2.71 1.47-2.48 1.07a3.53 3.53 0 0 1 1.04 1.36z" style="fill:#ea8b24"/>
   <ellipse cx="324.46" cy="160.09" rx="19.83" ry="11.62" stroke-miterlimit="10" style="fill:none;stroke-miterlimit:10;stroke-width:2;stroke:#f7931e"/>
   <ellipse cx="324.79" cy="159.12" rx="23.63" ry="13.84" style="fill:#ff912e"/>
   <polygon points="301.16 155.13 303.73 158.32 301.16 159.13" style="fill:#e0944f"/>
   <polygon points="347.61 155.92 348.42 155.13 348.42 159.13 345.42 159.13" style="fill:#e0944f"/>
   <ellipse cx="324.79" cy="155.13" rx="23.63" ry="13.84" style="fill:#ffb92c"/>
   <path d="m336.77 153.28a1.85 1.85 0 0 1 0.19 1l-0.09 0.37h-4.31a2 2 0 0 0 0.08-0.37 1.61 1.61 0 0 0-0.26-0.79 2.36 2.36 0 0 0-1-1 4.72 4.72 0 0 0-2-0.53 4.37 4.37 0 0 0-1.93 0.3q-0.91 0.39-0.7 1a3.74 3.74 0 0 0 0.92 1.35 16.42 16.42 0 0 1 1.31 1.5 1.57 1.57 0 0 1 0.23 1.66 3.72 3.72 0 0 1-2.1 1.63 12.41 12.41 0 0 1-4.57 1 14.62 14.62 0 0 1-5-0.71l-2.54 1.17-2.91-1.42 2.41-1a5.44 5.44 0 0 1-1.16-1 3.07 3.07 0 0 1-0.57-1 3.17 3.17 0 0 1-0.15-0.78 1.69 1.69 0 0 1 0-0.54l0.09-0.21h4.31a3.44 3.44 0 0 0-0.1 0.44 1.84 1.84 0 0 0 0.35 1 3.24 3.24 0 0 0 1.43 1.22 6.13 6.13 0 0 0 2.51 0.65 5.22 5.22 0 0 0 2.31-0.37q0.9-0.39 0.67-1a3.73 3.73 0 0 0-1-1.35 13.81 13.81 0 0 1-1.32-1.5 1.55 1.55 0 0 1-0.18-1.67 4 4 0 0 1 2.2-1.66 11.87 11.87 0 0 1 4.39-0.86 12.66 12.66 0 0 1 4.68 0.73l2.48-1.06 2.71 1.47-2.48 1.07a3.53 3.53 0 0 1 1.1 1.26z" style="fill:#ea8b24"/>
   <ellipse cx="324.83" cy="155.3" rx="19.83" ry="11.62" stroke-miterlimit="10" style="fill:none;stroke-miterlimit:10;stroke-width:2;stroke:#f7931e"/>
   <ellipse cx="324.79" cy="154.24" rx="23.63" ry="13.84" style="fill:#ff912e"/>
   <polygon points="301.16 150.25 303.73 153.44 301.16 154.24" style="fill:#e0944f"/>
   <polygon points="347.61 151.03 348.42 150.25 348.42 154.24 345.42 154.24" style="fill:#e0944f"/>
   <ellipse cx="324.79" cy="150.24" rx="23.63" ry="13.84" style="fill:#ffb92c"/>
   <path d="m336.77 148.39a1.85 1.85 0 0 1 0.19 1l-0.09 0.37h-4.31a2 2 0 0 0 0.08-0.37 1.61 1.61 0 0 0-0.26-0.79 2.36 2.36 0 0 0-1-1 4.72 4.72 0 0 0-2-0.53 4.37 4.37 0 0 0-1.93 0.3q-0.91 0.39-0.7 1a3.74 3.74 0 0 0 0.92 1.35 16.42 16.42 0 0 1 1.31 1.5 1.57 1.57 0 0 1 0.23 1.66 3.72 3.72 0 0 1-2.1 1.63 12.41 12.41 0 0 1-4.57 1 14.62 14.62 0 0 1-5-0.71l-2.54 1.2-2.91-1.42 2.41-1a5.44 5.44 0 0 1-1.16-1 3.07 3.07 0 0 1-0.57-1 3.17 3.17 0 0 1-0.15-0.78 1.69 1.69 0 0 1 0-0.54l0.09-0.21h4.31a3.44 3.44 0 0 0-0.1 0.44 1.84 1.84 0 0 0 0.35 1 3.24 3.24 0 0 0 1.43 1.22 6.13 6.13 0 0 0 2.51 0.65 5.22 5.22 0 0 0 2.31-0.37q0.9-0.39 0.67-1a3.73 3.73 0 0 0-1-1.35 13.81 13.81 0 0 1-1.19-1.64 1.55 1.55 0 0 1-0.18-1.67 4 4 0 0 1 2.2-1.66 11.87 11.87 0 0 1 4.39-0.86 12.66 12.66 0 0 1 4.68 0.73l2.48-1.06 2.71 1.47-2.48 1.07a3.53 3.53 0 0 1 0.97 1.37z" style="fill:#ea8b24"/>
   <ellipse cx="324.83" cy="150.41" rx="19.83" ry="11.62" stroke-miterlimit="10" style="fill:none;stroke-miterlimit:10;stroke-width:2;stroke:#f7931e"/>
   <ellipse cx="85.8" cy="169.96" rx="26.47" ry="15.51" style="fill:#ff912e"/>
   <polygon points="59.33 165.48 62.22 169.06 59.33 169.96" style="fill:#e0944f"/>
   <polygon points="111.37 166.36 112.27 165.48 112.27 169.96 108.91 169.96" style="fill:#e0944f"/>
   <ellipse cx="85.8" cy="165.48" rx="26.47" ry="15.51" style="fill:#ffb92c"/>
   <path d="m99.23 163.41a2.07 2.07 0 0 1 0.21 1.18l-0.1 0.41h-4.83a2.19 2.19 0 0 0 0.09-0.41 1.81 1.81 0 0 0-0.29-0.88 2.64 2.64 0 0 0-1.17-1.07 5.29 5.29 0 0 0-2.27-0.6 4.89 4.89 0 0 0-2.16 0.33q-1 0.44-0.78 1.14a4.19 4.19 0 0 0 1 1.51 18.4 18.4 0 0 1 1.47 1.68 1.76 1.76 0 0 1 0.26 1.86 4.16 4.16 0 0 1-2.35 1.83 13.9 13.9 0 0 1-5.12 1.07 16.38 16.38 0 0 1-5.6-0.79l-2.78 1.19-3.26-1.59 2.7-1.16a6.1 6.1 0 0 1-1.25-1.11 3.44 3.44 0 0 1-0.64-1.08 3.55 3.55 0 0 1-0.16-0.88 1.89 1.89 0 0 1 0-0.61l0.1-0.23h4.83a3.85 3.85 0 0 0-0.12 0.49 2.06 2.06 0 0 0 0.39 1.1 3.63 3.63 0 0 0 1.6 1.36 6.87 6.87 0 0 0 2.81 0.73 5.85 5.85 0 0 0 2.59-0.42q1-0.43 0.76-1.13a4.17 4.17 0 0 0-1.07-1.51 15.47 15.47 0 0 1-1.48-1.68 1.73 1.73 0 0 1-0.21-1.87 4.51 4.51 0 0 1 2.46-1.86 13.3 13.3 0 0 1 4.91-1 14.18 14.18 0 0 1 5.24 0.82l2.77-1.19 3 1.65-2.78 1.19a4 4 0 0 1 1.23 1.53z" style="fill:#ea8b24"/>
   <ellipse cx="85.85" cy="165.67" rx="22.22" ry="13.02" stroke-miterlimit="10" style="fill:none;stroke-miterlimit:10;stroke-width:2;stroke:#f7931e"/>
   <ellipse cx="85.8" cy="164.31" rx="26.47" ry="15.51" style="fill:#ff912e"/>
   <polygon points="59.33 159.83 62.22 163.41 59.33 164.31" style="fill:#e0944f"/>
   <polygon points="111.37 160.71 112.27 159.83 112.27 164.31 108.91 164.31" style="fill:#e0944f"/>
   <ellipse cx="85.8" cy="159.83" rx="26.47" ry="15.51" style="fill:#ffb92c"/>
   <path d="m99.23 157.76a2.07 2.07 0 0 1 0.21 1.18l-0.1 0.41h-4.83a2.19 2.19 0 0 0 0.09-0.41 1.81 1.81 0 0 0-0.29-0.88 2.64 2.64 0 0 0-1.17-1.06 5.29 5.29 0 0 0-2.27-0.6 4.89 4.89 0 0 0-2.16 0.33q-1 0.44-0.78 1.14a4.19 4.19 0 0 0 1 1.51 18.4 18.4 0 0 1 1.47 1.68 1.76 1.76 0 0 1 0.26 1.86 4.16 4.16 0 0 1-2.35 1.83 13.9 13.9 0 0 1-5.12 1.07 16.38 16.38 0 0 1-5.6-0.79l-2.78 1.19-3.26-1.59 2.7-1.16a6.1 6.1 0 0 1-1.25-1.12 3.44 3.44 0 0 1-0.64-1.08 3.55 3.55 0 0 1-0.16-0.88 1.89 1.89 0 0 1 0-0.61l0.1-0.23h4.83a3.85 3.85 0 0 0-0.13 0.45 2.06 2.06 0 0 0 0.39 1.1 3.63 3.63 0 0 0 1.61 1.4 6.87 6.87 0 0 0 2.81 0.73 5.85 5.85 0 0 0 2.59-0.42q1-0.43 0.76-1.13a4.17 4.17 0 0 0-1.07-1.51 15.47 15.47 0 0 1-1.48-1.68 1.73 1.73 0 0 1-0.21-1.87 4.51 4.51 0 0 1 2.46-1.86 13.3 13.3 0 0 1 4.91-1 14.18 14.18 0 0 1 5.24 0.82l2.77-1.19 3 1.65-2.78 1.19a4 4 0 0 1 1.23 1.53z" style="fill:#ea8b24"/>
   <ellipse cx="85.85" cy="160.02" rx="22.22" ry="13.02" stroke-miterlimit="10" style="fill:none;stroke-miterlimit:10;stroke-width:2;stroke:#f7931e"/>
   <ellipse cx="85.8" cy="158.94" rx="26.47" ry="15.51" style="fill:#ff912e"/>
   <polygon points="59.33 154.46 62.22 158.04 59.33 158.94" style="fill:#e0944f"/>
   <polygon points="111.37 155.35 112.27 154.46 112.27 158.94 108.91 158.94" style="fill:#e0944f"/>
   <ellipse cx="85.8" cy="154.46" rx="26.47" ry="15.51" style="fill:#ffb92c"/>
   <path d="m99.23 152.39a2.07 2.07 0 0 1 0.21 1.18l-0.1 0.41h-4.83a2.19 2.19 0 0 0 0.09-0.41 1.81 1.81 0 0 0-0.29-0.88 2.64 2.64 0 0 0-1.17-1.07 5.29 5.29 0 0 0-2.27-0.6 4.89 4.89 0 0 0-2.16 0.33q-1 0.44-0.78 1.14a4.19 4.19 0 0 0 1.07 1.51 18.4 18.4 0 0 1 1.47 1.68 1.76 1.76 0 0 1 0.26 1.86 4.16 4.16 0 0 1-2.35 1.83 13.9 13.9 0 0 1-5.12 1.07 16.38 16.38 0 0 1-5.6-0.79l-2.78 1.19-3.26-1.59 2.7-1.16a6.1 6.1 0 0 1-1.32-1.09 3.44 3.44 0 0 1-0.64-1.08 3.55 3.55 0 0 1-0.16-0.88 1.89 1.89 0 0 1 0-0.61l0.1-0.23h4.83a3.85 3.85 0 0 0-0.12 0.49 2.06 2.06 0 0 0 0.39 1.1 3.63 3.63 0 0 0 1.6 1.36 6.87 6.87 0 0 0 2.81 0.73 5.85 5.85 0 0 0 2.59-0.42q1-0.43 0.76-1.13a4.17 4.17 0 0 0-1.07-1.51 15.47 15.47 0 0 1-1.48-1.68 1.73 1.73 0 0 1-0.21-1.87 4.51 4.51 0 0 1 2.46-1.86 13.3 13.3 0 0 1 4.91-1 14.18 14.18 0 0 1 5.24 0.82l2.81-1.23 3 1.65-2.78 1.19a4 4 0 0 1 1.19 1.55z" style="fill:#ea8b24"/>
   <ellipse cx="85.85" cy="154.65" rx="22.22" ry="13.02" stroke-miterlimit="10" style="fill:none;stroke-miterlimit:10;stroke-width:2;stroke:#f7931e"/>
   <ellipse cx="85.8" cy="153.47" rx="26.47" ry="15.51" style="fill:#ff912e"/>
   <polygon points="59.33 148.99 62.22 152.57 59.33 153.47" style="fill:#e0944f"/>
   <polygon points="111.37 149.88 112.27 148.99 112.27 153.47 108.91 153.47" style="fill:#e0944f"/>
   <ellipse cx="85.8" cy="148.99" rx="26.47" ry="15.51" style="fill:#ffb92c"/>
   <path d="m99.23 146.92a2.07 2.07 0 0 1 0.21 1.18l-0.1 0.41h-4.83a2.19 2.19 0 0 0 0.09-0.41 1.81 1.81 0 0 0-0.29-0.88 2.64 2.64 0 0 0-1.17-1.07 5.29 5.29 0 0 0-2.27-0.6 4.89 4.89 0 0 0-2.16 0.33q-1 0.44-0.78 1.14a4.19 4.19 0 0 0 1 1.51 18.4 18.4 0 0 1 1.47 1.68 1.76 1.76 0 0 1 0.26 1.86 4.16 4.16 0 0 1-2.35 1.83 13.9 13.9 0 0 1-5.09 1.1 16.38 16.38 0 0 1-5.6-0.79l-2.78 1.19-3.26-1.59 2.7-1.16a6.1 6.1 0 0 1-1.28-1.14 3.44 3.44 0 0 1-0.64-1.08 3.55 3.55 0 0 1-0.16-0.88 1.89 1.89 0 0 1 0-0.61l0.1-0.23h4.83a3.85 3.85 0 0 0-0.12 0.49 2.06 2.06 0 0 0 0.39 1.1 3.63 3.63 0 0 0 1.6 1.36 6.87 6.87 0 0 0 2.81 0.73 5.85 5.85 0 0 0 2.59-0.42q1-0.43 0.76-1.13a4.17 4.17 0 0 0-1.07-1.51 15.47 15.47 0 0 1-1.48-1.68 1.73 1.73 0 0 1-0.21-1.87 4.51 4.51 0 0 1 2.46-1.86 13.3 13.3 0 0 1 4.91-1 14.18 14.18 0 0 1 5.24 0.82l2.77-1.19 3 1.65-2.78 1.19a4 4 0 0 1 1.23 1.53z" style="fill:#ea8b24"/>
   <ellipse cx="85.85" cy="149.18" rx="22.22" ry="13.02" stroke-miterlimit="10" style="fill:none;stroke-miterlimit:10;stroke-width:2;stroke:#f7931e"/>
   <ellipse cx="85.59" cy="146.75" rx="26.47" ry="15.51" style="fill:#ff912e"/>
   <polygon points="59.13 142.28 62.01 145.85 59.13 146.75" style="fill:#e0944f"/>
   <polygon points="111.17 143.16 112.06 142.28 112.06 146.75 108.7 146.75" style="fill:#e0944f"/>
   <ellipse cx="85.59" cy="142.28" rx="26.47" ry="15.51" style="fill:#ffb92c"/>
   <path d="m99 140.2a2.07 2.07 0 0 1 0.21 1.18l-0.1 0.41h-4.83a2.19 2.19 0 0 0 0.09-0.41 1.81 1.81 0 0 0-0.29-0.88 2.64 2.64 0 0 0-1.17-1.07 5.29 5.29 0 0 0-2.27-0.6 4.89 4.89 0 0 0-2.16 0.33q-1 0.44-0.78 1.14a4.19 4.19 0 0 0 1 1.51 18.4 18.4 0 0 1 1.47 1.68 1.76 1.76 0 0 1 0.26 1.86 4.16 4.16 0 0 1-2.35 1.83 13.9 13.9 0 0 1-5.08 1.12 16.38 16.38 0 0 1-5.6-0.79l-2.78 1.19-3.26-1.59 2.7-1.16a6.1 6.1 0 0 1-1.29-1.16 3.44 3.44 0 0 1-0.64-1.08 3.55 3.55 0 0 1-0.16-0.88 1.89 1.89 0 0 1 0-0.61l0.1-0.23h4.93a3.85 3.85 0 0 0-0.12 0.49 2.06 2.06 0 0 0 0.39 1.1 3.63 3.63 0 0 0 1.6 1.36 6.87 6.87 0 0 0 2.81 0.73 5.85 5.85 0 0 0 2.59-0.42q1-0.43 0.76-1.13a4.17 4.17 0 0 0-1.07-1.51 15.47 15.47 0 0 1-1.48-1.68 1.73 1.73 0 0 1-0.21-1.87 4.51 4.51 0 0 1 2.46-1.86 13.3 13.3 0 0 1 4.91-1 14.18 14.18 0 0 1 5.24 0.82l2.77-1.19 3 1.65-2.78 1.19a4 4 0 0 1 1.13 1.53z" style="fill:#ea8b24"/>
   <ellipse cx="85.64" cy="142.46" rx="22.22" ry="13.02" stroke-miterlimit="10" style="fill:none;stroke-miterlimit:10;stroke-width:2;stroke:#f7931e"/>
   <ellipse cx="85.59" cy="141.1" rx="26.47" ry="15.51" style="fill:#ff912e"/>
   <polygon points="59.13 136.63 62.01 140.21 59.13 141.1" style="fill:#e0944f"/>
   <polygon points="111.17 137.51 112.06 136.63 112.06 141.1 108.7 141.1" style="fill:#e0944f"/>
   <ellipse cx="85.59" cy="136.63" rx="26.47" ry="15.51" style="fill:#ffb92c"/>
   <path d="m99 134.55a2.07 2.07 0 0 1 0.21 1.18l-0.1 0.41h-4.83a2.19 2.19 0 0 0 0.09-0.41 1.81 1.81 0 0 0-0.29-0.88 2.64 2.64 0 0 0-1.17-1.07 5.29 5.29 0 0 0-2.27-0.6 4.89 4.89 0 0 0-2.16 0.33q-1 0.44-0.78 1.14a4.19 4.19 0 0 0 1 1.51 18.4 18.4 0 0 1 1.47 1.68 1.76 1.76 0 0 1 0.26 1.86 4.16 4.16 0 0 1-2.35 1.83 13.9 13.9 0 0 1-5.08 1.12 16.38 16.38 0 0 1-5.6-0.79l-2.78 1.19-3.26-1.59 2.7-1.16a6.1 6.1 0 0 1-1.29-1.16 3.44 3.44 0 0 1-0.64-1.08 3.55 3.55 0 0 1-0.16-0.88 1.89 1.89 0 0 1 0-0.61l0.1-0.23h4.93a3.85 3.85 0 0 0-0.12 0.49 2.06 2.06 0 0 0 0.39 1.1 3.63 3.63 0 0 0 1.6 1.36 6.87 6.87 0 0 0 2.81 0.73 5.85 5.85 0 0 0 2.59-0.42q1-0.43 0.76-1.13a4.17 4.17 0 0 0-1.12-1.47 15.47 15.47 0 0 1-1.48-1.68 1.73 1.73 0 0 1-0.21-1.87 4.51 4.51 0 0 1 2.46-1.86 13.3 13.3 0 0 1 4.91-1 14.18 14.18 0 0 1 5.24 0.82l2.77-1.19 3 1.65-2.78 1.19a4 4 0 0 1 1.18 1.49z" style="fill:#ea8b24"/>
   <ellipse cx="85.64" cy="136.81" rx="22.22" ry="13.02" stroke-miterlimit="10" style="fill:none;stroke-miterlimit:10;stroke-width:2;stroke:#f7931e"/>
   <ellipse cx="86.01" cy="135.74" rx="26.47" ry="15.51" style="fill:#ff912e"/>
   <polygon points="59.54 131.26 62.42 134.84 59.54 135.74" style="fill:#e0944f"/>
   <polygon points="111.58 132.14 112.48 131.26 112.48 135.74 109.12 135.74" style="fill:#e0944f"/>
   <ellipse cx="86.01" cy="131.26" rx="26.47" ry="15.51" style="fill:#ffb92c"/>
   <path d="m99.43 129.19a2.07 2.07 0 0 1 0.21 1.18l-0.1 0.41h-4.83a2.19 2.19 0 0 0 0.09-0.41 1.81 1.81 0 0 0-0.29-0.88 2.64 2.64 0 0 0-1.17-1.07 5.29 5.29 0 0 0-2.27-0.6 4.89 4.89 0 0 0-2.16 0.33q-1 0.44-0.78 1.14a4.19 4.19 0 0 0 1 1.51 18.4 18.4 0 0 1 1.47 1.68 1.76 1.76 0 0 1 0.26 1.86 4.16 4.16 0 0 1-2.35 1.83 13.9 13.9 0 0 1-5.12 1.07 16.38 16.38 0 0 1-5.6-0.79l-2.79 1.23-3.26-1.59 2.7-1.16a6.1 6.1 0 0 1-1.29-1.16 3.44 3.44 0 0 1-0.64-1.08 3.55 3.55 0 0 1-0.16-0.88 1.89 1.89 0 0 1 0-0.61l0.1-0.23h4.83a3.85 3.85 0 0 0-0.12 0.49 2.06 2.06 0 0 0 0.39 1.1 3.63 3.63 0 0 0 1.6 1.36 6.87 6.87 0 0 0 2.81 0.73 5.85 5.85 0 0 0 2.59-0.42q1-0.43 0.76-1.13a4.17 4.17 0 0 0-1.07-1.51 15.47 15.47 0 0 1-1.48-1.68 1.73 1.73 0 0 1-0.21-1.87 4.51 4.51 0 0 1 2.46-1.86 13.3 13.3 0 0 1 4.91-1 14.18 14.18 0 0 1 5.24 0.82l2.84-1.16 3 1.65-2.78 1.19a4 4 0 0 1 1.21 1.51z" style="fill:#ea8b24"/>
   <ellipse cx="86.06" cy="131.45" rx="22.22" ry="13.02" stroke-miterlimit="10" style="fill:none;stroke-miterlimit:10;stroke-width:2;stroke:#f7931e"/>
   <ellipse cx="93.98" cy="129.01" rx="26.47" ry="15.51" style="fill:#ff912e"/>
   <polygon points="67.52 124.53 70.4 128.11 67.52 129.01" style="fill:#e0944f"/>
   <polygon points="119.56 125.41 120.45 124.53 120.45 129.01 117.09 129.01" style="fill:#e0944f"/>
   <ellipse cx="93.98" cy="124.53" rx="26.47" ry="15.51" style="fill:#ffb92c"/>
   <path d="m107.41 122.46a2.07 2.07 0 0 1 0.21 1.18l-0.1 0.41h-4.83a2.19 2.19 0 0 0 0.09-0.41 1.81 1.81 0 0 0-0.29-0.88 2.64 2.64 0 0 0-1.17-1.07 5.29 5.29 0 0 0-2.27-0.6 4.89 4.89 0 0 0-2.16 0.33q-1 0.44-0.78 1.14a4.19 4.19 0 0 0 1 1.51 18.4 18.4 0 0 1 1.47 1.68 1.76 1.76 0 0 1 0.26 1.86 4.16 4.16 0 0 1-2.35 1.83 13.9 13.9 0 0 1-5.12 1.07 16.38 16.38 0 0 1-5.6-0.79l-2.77 1.28-3.26-1.59 2.7-1.16a6.1 6.1 0 0 1-1.29-1.16 3.44 3.44 0 0 1-0.64-1.08 3.55 3.55 0 0 1-0.16-0.88 1.89 1.89 0 0 1 0-0.61l0.1-0.23h4.83a3.85 3.85 0 0 0-0.12 0.49 2.06 2.06 0 0 0 0.39 1.1 3.63 3.63 0 0 0 1.6 1.36 6.87 6.87 0 0 0 2.81 0.73 5.85 5.85 0 0 0 2.59-0.42q1-0.43 0.76-1.13a4.17 4.17 0 0 0-1.07-1.51 15.47 15.47 0 0 1-1.48-1.68 1.73 1.73 0 0 1-0.21-1.87 4.51 4.51 0 0 1 2.46-1.86 13.3 13.3 0 0 1 4.91-1 14.18 14.18 0 0 1 5.24 0.82l2.77-1.19 3 1.65-2.67 1.22a4 4 0 0 1 1.15 1.46z" style="fill:#ea8b24"/>
   <ellipse cx="94.03" cy="124.72" rx="22.22" ry="13.02" stroke-miterlimit="10" style="fill:none;stroke-miterlimit:10;stroke-width:2;stroke:#f7931e"/>
   <ellipse cx="194.72" cy="253.04" rx="23.63" ry="13.84" style="fill:#ff912e"/>
   <polygon points="171.1 249.05 173.67 252.24 171.1 253.04" style="fill:#e0944f"/>
   <polygon points="217.55 249.84 218.35 249.05 218.35 253.04 215.35 253.04" style="fill:#e0944f"/>
   <ellipse cx="194.72" cy="249.05" rx="23.63" ry="13.84" style="fill:#ffb92c"/>
   <path d="m206.71 247.2a1.85 1.85 0 0 1 0.19 1l-0.09 0.37h-4.31a2 2 0 0 0 0.08-0.37 1.61 1.61 0 0 0-0.26-0.79 2.36 2.36 0 0 0-1-1 4.72 4.72 0 0 0-2-0.53 4.37 4.37 0 0 0-1.93 0.3q-0.91 0.39-0.7 1a3.74 3.74 0 0 0 0.92 1.35 16.42 16.42 0 0 1 1.31 1.5 1.57 1.57 0 0 1 0.23 1.66 3.72 3.72 0 0 1-2.1 1.63 12.41 12.41 0 0 1-4.57 1 14.62 14.62 0 0 1-5-0.71l-2.48 1.07-3-1.31 2.41-1a5.44 5.44 0 0 1-1.16-1 3.07 3.07 0 0 1-0.57-1 3.17 3.17 0 0 1-0.15-0.78 1.69 1.69 0 0 1 0-0.54l0.09-0.21h4.38a3.44 3.44 0 0 0-0.1 0.44 1.84 1.84 0 0 0 0.35 1 3.24 3.24 0 0 0 1.43 1.22 6.13 6.13 0 0 0 2.51 0.65 5.22 5.22 0 0 0 2.31-0.37q0.9-0.39 0.67-1a3.73 3.73 0 0 0-1-1.35 13.81 13.81 0 0 1-1.32-1.5 1.55 1.55 0 0 1-0.18-1.67 4 4 0 0 1 2.2-1.66 11.87 11.87 0 0 1 4.39-0.86 12.66 12.66 0 0 1 4.68 0.73l2.48-1.06 2.71 1.47-2.48 1.07a3.53 3.53 0 0 1 1.06 1.25z" style="fill:#ea8b24"/>
   <ellipse cx="194.77" cy="249.21" rx="19.83" ry="11.62" stroke-miterlimit="10" style="fill:none;stroke-miterlimit:10;stroke-width:2;stroke:#f7931e"/>
   <ellipse cx="210.93" cy="236.36" rx="23.63" ry="13.84" style="fill:#ff912e"/>
   <polygon points="187.3 232.37 189.88 235.56 187.3 236.36" style="fill:#e0944f"/>
   <polygon points="233.76 233.15 234.56 232.37 234.56 236.36 231.56 236.36" style="fill:#e0944f"/>
   <ellipse cx="210.93" cy="232.37" rx="23.63" ry="13.84" style="fill:#ffb92c"/>
   <path d="m222.91 230.52a1.85 1.85 0 0 1 0.19 1l-0.09 0.37h-4.31a2 2 0 0 0 0.08-0.37 1.61 1.61 0 0 0-0.26-0.79 2.36 2.36 0 0 0-1-1 4.72 4.72 0 0 0-2-0.53 4.37 4.37 0 0 0-1.93 0.3q-0.91 0.39-0.7 1a3.74 3.74 0 0 0 0.92 1.35 16.42 16.42 0 0 1 1.31 1.5 1.57 1.57 0 0 1 0.23 1.66 3.72 3.72 0 0 1-2.1 1.63 12.41 12.41 0 0 1-4.57 1 14.62 14.62 0 0 1-5-0.71l-2.48 1.07-2.91-1.42 2.41-1a5.44 5.44 0 0 1-1.16-1 3.07 3.07 0 0 1-0.57-1 3.17 3.17 0 0 1-0.15-0.78 1.69 1.69 0 0 1 0-0.54l0.09-0.21h4.31a3.44 3.44 0 0 0-0.1 0.44 1.84 1.84 0 0 0 0.35 1 3.24 3.24 0 0 0 1.43 1.22 6.13 6.13 0 0 0 2.51 0.65 5.22 5.22 0 0 0 2.31-0.37q0.9-0.39 0.67-1a3.73 3.73 0 0 0-1-1.35 13.81 13.81 0 0 1-1.32-1.5 1.55 1.55 0 0 1-0.18-1.67 4 4 0 0 1 2.2-1.66 11.87 11.87 0 0 1 4.39-0.86 12.66 12.66 0 0 1 4.68 0.73l2.48-1.06 2.71 1.47-2.48 1.07a3.53 3.53 0 0 1 1.04 1.36z" style="fill:#ea8b24"/>
   <ellipse cx="210.97" cy="232.53" rx="19.83" ry="11.62" stroke-miterlimit="10" style="fill:none;stroke-miterlimit:10;stroke-width:2;stroke:#f7931e"/>
   <ellipse cx="183.19" cy="238.19" rx="23.63" ry="13.84" style="fill:#ff912e"/>
   <polygon points="159.56 234.2 162.13 237.39 159.56 238.19" style="fill:#e0944f"/>
   <polygon points="206.01 234.99 206.81 234.2 206.81 238.19 203.82 238.19" style="fill:#e0944f"/>
   <ellipse cx="183.19" cy="234.2" rx="23.63" ry="13.84" style="fill:#ffb92c"/>
   <path d="m195.17 232.35a1.85 1.85 0 0 1 0.19 1l-0.09 0.37h-4.31a2 2 0 0 0 0.08-0.37 1.61 1.61 0 0 0-0.26-0.79 2.36 2.36 0 0 0-1-1 4.72 4.72 0 0 0-2-0.53 4.37 4.37 0 0 0-1.93 0.3q-0.91 0.39-0.7 1a3.74 3.74 0 0 0 0.92 1.35 16.42 16.42 0 0 1 1.31 1.5 1.57 1.57 0 0 1 0.23 1.66 3.72 3.72 0 0 1-2.1 1.63 12.41 12.41 0 0 1-4.57 1 14.62 14.62 0 0 1-5-0.71l-2.48 1.07-2.91-1.42 2.41-1a5.44 5.44 0 0 1-1.16-1 3.07 3.07 0 0 1-0.57-1 3.17 3.17 0 0 1-0.15-0.78 1.69 1.69 0 0 1 0-0.54l0.09-0.21h4.31a3.44 3.44 0 0 0-0.1 0.44 1.84 1.84 0 0 0 0.35 1 3.24 3.24 0 0 0 1.43 1.22 6.13 6.13 0 0 0 2.51 0.65 5.22 5.22 0 0 0 2.31-0.37q0.9-0.39 0.67-1a3.73 3.73 0 0 0-1-1.35 13.81 13.81 0 0 1-1.32-1.5 1.55 1.55 0 0 1-0.18-1.67 4 4 0 0 1 2.2-1.66 11.87 11.87 0 0 1 4.39-0.86 12.66 12.66 0 0 1 4.68 0.73l2.48-1.06 2.71 1.47-2.47 1.08a3.53 3.53 0 0 1 1.03 1.35z" style="fill:#ea8b24"/>
   <ellipse cx="183.23" cy="234.36" rx="19.83" ry="11.62" stroke-miterlimit="10" style="fill:none;stroke-miterlimit:10;stroke-width:2;stroke:#f7931e"/>
   <ellipse cx="230.81" cy="250.04" rx="23.63" ry="13.84" style="fill:#ff912e"/>
   <polygon points="207.18 246.04 209.75 249.23 207.18 250.04" style="fill:#e0944f"/>
   <polygon points="253.63 246.83 254.43 246.04 254.43 250.04 251.43 250.04" style="fill:#e0944f"/>
   <ellipse cx="230.81" cy="246.04" rx="23.63" ry="13.84" style="fill:#ffb92c"/>
   <path d="m242.79 244.19a1.85 1.85 0 0 1 0.19 1l-0.09 0.37h-4.31a2 2 0 0 0 0.08-0.37 1.61 1.61 0 0 0-0.26-0.79 2.36 2.36 0 0 0-1-1 4.72 4.72 0 0 0-2-0.53 4.37 4.37 0 0 0-1.93 0.3q-0.91 0.39-0.7 1a3.74 3.74 0 0 0 0.92 1.35 16.42 16.42 0 0 1 1.31 1.5 1.57 1.57 0 0 1 0.23 1.66 3.72 3.72 0 0 1-2.1 1.63 12.41 12.41 0 0 1-4.57 1 14.62 14.62 0 0 1-5-0.71l-2.56 1.17-2.91-1.42 2.41-1a5.44 5.44 0 0 1-1.16-1 3.07 3.07 0 0 1-0.57-1 3.17 3.17 0 0 1-0.15-0.78 1.69 1.69 0 0 1 0-0.54l0.09-0.21h4.31a3.44 3.44 0 0 0-0.1 0.44 1.84 1.84 0 0 0 0.35 1 3.24 3.24 0 0 0 1.43 1.22 6.13 6.13 0 0 0 2.51 0.65 5.22 5.22 0 0 0 2.31-0.37q0.9-0.39 0.67-1a3.73 3.73 0 0 0-1-1.35 13.81 13.81 0 0 1-1.32-1.5 1.55 1.55 0 0 1-0.18-1.67 4 4 0 0 1 2.2-1.66 11.87 11.87 0 0 1 4.39-0.86 12.66 12.66 0 0 1 4.68 0.73l2.48-1.06 2.71 1.47-2.48 1.07a3.53 3.53 0 0 1 1.12 1.26z" style="fill:#ea8b24"/>
   <ellipse cx="230.85" cy="246.21" rx="19.83" ry="11.62" stroke-miterlimit="10" style="fill:none;stroke-miterlimit:10;stroke-width:2;stroke:#f7931e"/>
   <ellipse cx="218.35" cy="241.2" rx="23.63" ry="13.84" style="fill:#ff912e"/>
   <polygon points="194.72 237.2 197.3 240.4 194.72 241.2" style="fill:#e0944f"/>
   <polygon points="241.18 237.99 241.98 237.2 241.98 241.2 238.98 241.2" style="fill:#e0944f"/>
   <ellipse cx="218.35" cy="237.2" rx="23.63" ry="13.84" style="fill:#ffb92c"/>
   <path d="m230.33 235.35a1.85 1.85 0 0 1 0.19 1l-0.09 0.37h-4.31a2 2 0 0 0 0.08-0.37 1.61 1.61 0 0 0-0.26-0.79 2.36 2.36 0 0 0-1-1 4.72 4.72 0 0 0-2-0.53 4.37 4.37 0 0 0-1.93 0.3q-0.91 0.39-0.7 1a3.74 3.74 0 0 0 0.92 1.35 16.42 16.42 0 0 1 1.31 1.5 1.57 1.57 0 0 1 0.23 1.66 3.72 3.72 0 0 1-2.1 1.63 12.41 12.41 0 0 1-4.57 1 14.62 14.62 0 0 1-5-0.71l-2.48 1.07-2.91-1.42 2.41-1a5.44 5.44 0 0 1-1.16-1 3.07 3.07 0 0 1-0.57-1 3.17 3.17 0 0 1-0.15-0.78 1.69 1.69 0 0 1 0-0.54l0.09-0.21h4.31a3.44 3.44 0 0 0-0.1 0.44 1.84 1.84 0 0 0 0.35 1 3.24 3.24 0 0 0 1.43 1.22 6.13 6.13 0 0 0 2.51 0.65 5.22 5.22 0 0 0 2.31-0.37q0.9-0.39 0.67-1a3.73 3.73 0 0 0-1-1.35 13.81 13.81 0 0 1-1.32-1.5 1.55 1.55 0 0 1-0.18-1.67 4 4 0 0 1 2.2-1.66 11.87 11.87 0 0 1 4.39-0.86 12.66 12.66 0 0 1 4.68 0.73l2.48-1.06 2.71 1.47-2.46 1.08a3.53 3.53 0 0 1 1.02 1.35z" style="fill:#ea8b24"/>
   <ellipse cx="218.39" cy="237.37" rx="19.83" ry="11.62" stroke-miterlimit="10" style="fill:none;stroke-miterlimit:10;stroke-width:2;stroke:#f7931e"/>
   <path d="m165 218.59s0.49 7.6-5.42 8.07c0 0 5 2.08 5.84 6.06 0 0 0.62-5.56 5.7-6.13a7.82 7.82 0 0 1-6.12-8z" style="fill:#fff"/>
   <path d="m144.25 99.58s2.79-5.3 6.73-3.33 6.34 5.42 11.65 3.33 8.59-13.06 12.14-11.43 5.7 4.5 4.08 10-0.9 6.81 1.43 7.52-6.11 9-12.73 7.16-23.3-13.25-23.3-13.25z" style="fill:#68e1fd"/>
   <path d="m150.27 116.71s-17.32 18.51-13.49 38.1 48.54 21.23 55 6.11 0.38-35.89-9.43-43.11c0 0 8.1-8.6 4.76-14.42s-8.76 4.89-11.68 3.36 6.35-19.08-3.78-19.76-7.49 18-11.8 17.09-12.1-9.74-15.57-4.51 8.39 11.38 5.99 17.14z" style="fill:#68e1fd"/>
   <path d="m182.32 117.93s8.1-8.6 4.76-14.42c-0.85-1.48-1.83-1.88-2.88-1.7 2.52 4.43-2.21 9.19-5.43 12.45-1.26 1.28-3.1 2.59-4 4.13-2.74 4.49 0.19 8 3 11.49a31.43 31.43 0 0 1 6.44 12.44c3.15 13-3.13 24.1-13.28 28.72 9.68-0.64 18.29-4 20.85-10 6.41-15.11 0.35-35.89-9.46-43.11z" style="fill:#333;opacity:.13"/>
   <path d="m180.33 114.53a51.15 51.15 0 0 1-28.3-2.17c-3.24-1.18-4.64 4-1.42 5.16a56.48 56.48 0 0 0 31.14 2.17c3.37-0.69 1.94-5.85-1.42-5.16z" style="fill:#c64f14"/>
   <path d="m177.55 145.37c-0.64-3-3.61-4.39-6.42-4.67a9.45 9.45 0 0 0-1.35 0v-8.59a9.7 9.7 0 0 1 2 0.43c1.23 0.41 1.92-1.48 0.69-1.89a9.11 9.11 0 0 0-2.73-0.36v-3.17c0-1.29-2-1.46-2-0.16v3.43c-0.64 0.07-1.29 0.18-1.94 0.32v-3c0-1.29-2-1.46-2-0.16v3.74c-4.59 1.48-8.35 4.61-5.28 8.92a6.48 6.48 0 0 0 5.37 2.67v8.9c-1.4-0.12-2.79-0.3-4.12-0.5s-1.44 1.82-0.16 2c1.09 0.16 2.6 0.33 4.28 0.4v4.13c0 1.38 2 1.46 2 0.16v-4.25c0.7 0 1.4 0 2.11-0.08 0 2.06 0.07 4.13 0.13 6.2 0 1.28 2 1.46 2 0.16-0.06-2.19-0.09-4.38-0.13-6.57 4.67-0.73 8.66-2.8 7.55-8.06zm-14.85-4.94q-4.59-0.56-0.51-6.38a14.14 14.14 0 0 1 1.61-0.82c0 2.54 0.05 5.07 0.07 7.61a4.82 4.82 0 0 1-1.17-0.41zm3.09-8a10.75 10.75 0 0 1 1.93-0.38v8.77c-0.64 0.07-1.28 0.13-1.9 0.15 0.04-2.82 0.01-5.67-0.02-8.52zm0.09 19.36v-9l1.9-0.1c0 3 0.11 6 0.18 9.07-0.68 0.06-1.38 0.07-2.07 0.05zm4.07-0.27c-0.06-3-0.13-5.9-0.17-8.85h0.65c3.05 0.22 4.48 0.81 4.36 4s-1.79 4.33-4.79 4.87z" style="fill:#333C5E"/>
   <path d="m189.44 84.71s4.63-8.78 11.16-5.52 10.52 9 19.3 5.52 14.25-21.65 20.1-18.94 9.44 7.45 6.77 16.66-1.48 11.28 2.38 12.47-10.13 14.85-21.1 11.88-38.61-22.07-38.61-22.07z" style="fill:#68e1fd"/>
   <path d="m199.41 113.11s-28.71 30.68-22.41 63.16 80.47 35.19 91.14 10.14 0.63-59.5-15.64-71.47c0 0 13.42-14.26 7.89-23.9s-14.52 8.11-19.36 5.58 10.58-31.62-6.21-32.77-12.41 29.9-19.56 28.33-20.06-16.18-25.82-7.47 13.95 18.84 9.97 28.4z" style="fill:#68e1fd"/>
   <path d="m252.55 115.13s13.42-14.26 7.89-23.9c-1.41-2.45-3-3.12-4.77-2.81 4.18 7.34-3.67 15.23-9 20.63-2.09 2.12-5.15 4.3-6.7 6.85-4.55 7.44 0.31 13.29 5 19a52.1 52.1 0 0 1 10.68 20.62c5.23 21.61-5.19 39.94-22 47.61 16-1.06 30.32-6.61 34.56-16.57 10.65-25.01 0.6-59.45-15.66-71.43z" style="fill:#333;opacity:.13"/>
   <path d="m249.24 109.5a84.8 84.8 0 0 1-46.91-3.6c-5.37-2-7.69 6.62-2.36 8.56a93.64 93.64 0 0 0 51.63 3.6c5.59-1.16 3.22-9.71-2.36-8.56z" style="fill:#c64f14"/>
   <path d="m244.64 160.62c-1.06-5-6-7.28-10.64-7.74a15.67 15.67 0 0 0-2.23 0c0-4.75-0.06-9.5-0.07-14.25a16.09 16.09 0 0 1 3.37 0.71c2 0.68 3.18-2.46 1.14-3.14a15.1 15.1 0 0 0-4.53-0.59v-5.25c0-2.14-3.32-2.42-3.33-0.27v5.69c-1.05 0.12-2.13 0.3-3.22 0.53v-5.05c0-2.13-3.36-2.42-3.33-0.27s0 4.13 0.05 6.2c-7.61 2.46-13.84 7.64-8.74 14.8 2.34 3.29 5.5 4.25 8.91 4.43v14.75c-2.32-0.2-4.63-0.49-6.84-0.82s-2.38 3-0.27 3.33c1.8 0.27 4.31 0.54 7.1 0.67v6.84c0 2.28 3.32 2.42 3.33 0.27v-7c1.15 0 2.33 0 3.5-0.13 0.08 3.42 0.11 6.85 0.21 10.27 0.06 2.13 3.39 2.42 3.33 0.27-0.1-3.63-0.14-7.26-0.22-10.89 7.71-1.21 14.32-4.65 12.48-13.36zm-24.64-8.19q-7.61-0.94-0.85-10.57a23.44 23.44 0 0 1 2.67-1.37c0 4.2 0.09 8.41 0.11 12.61a8 8 0 0 1-1.93-0.67zm5.13-13.22a17.82 17.82 0 0 1 3.21-0.62c0 4.85 0 9.69 0.07 14.54-1.06 0.11-2.12 0.22-3.16 0.25 0-4.72-0.04-9.45-0.09-14.17zm0.15 32.09v-14.93c1 0 2.1-0.11 3.15-0.17 0.06 5 0.19 10 0.29 15-1.11 0.11-2.26 0.13-3.41 0.1zm6.75-0.45c-0.1-4.89-0.22-9.78-0.28-14.68h1.08c5.06 0.37 7.43 1.35 7.23 6.63s-2.93 7.1-8 8.05z" style="fill:#333C5E"/>
   <path d="m114.26 109.57s0.6 9.2-6.56 9.76c0 0 6.06 2.51 7.06 7.33 0 0 0.75-6.72 6.9-7.41a9.46 9.46 0 0 1-7.4-9.68z" style="fill:#fff"/>
   <path d="m304.21 160.63s0.6 9.2-6.56 9.76c0 0 6.06 2.51 7.06 7.33 0 0 0.75-6.72 6.9-7.41a9.46 9.46 0 0 1-7.4-9.68z" style="fill:#fff"/>
  </g>
 </g>
</svg>
