<svg width="210.42" height="187.2" data-name="Layer 1" version="1.1" viewBox="0 0 266.42 242.35" xmlns="http://www.w3.org/2000/svg" xmlns:xlink="http://www.w3.org/1999/xlink">
 <defs>
  <linearGradient id="linearGradient2221" x1="81.755" x2="143.24" y1="115.46" y2="144.26" gradientUnits="userSpaceOnUse">
   <stop style="stop-color:#e4e4e4" offset="0"/>
   <stop style="stop-color:#e4e4e4;stop-opacity:0" offset="1"/>
  </linearGradient>
  <linearGradient id="linearGradient2229" x1="86.562" x2="137.65" y1="111.94" y2="145.51" gradientUnits="userSpaceOnUse">
   <stop style="stop-color:#e4e4e4" offset="0"/>
   <stop style="stop-color:#e4e4e4;stop-opacity:0" offset="1"/>
  </linearGradient>
  <linearGradient id="linearGradient2237" x1="84.373" x2="138.38" y1="114.13" y2="150.62" gradientUnits="userSpaceOnUse">
   <stop style="stop-color:#e4e4e4" offset="0"/>
   <stop style="stop-color:#e4e4e4;stop-opacity:0" offset="1"/>
  </linearGradient>
 </defs>
 <polygon transform="matrix(2.0524 0 0 2.0524 -69.264 -52.902)" points="65.4 124.35 99.7 144.15 134 124.35 99.7 104.55" style="fill:url(#linearGradient2221)"/>
 <polygon transform="translate(132.42 -20.028)" points="99.7 144.15 134 124.35 99.7 104.55 65.4 124.35" style="fill:url(#linearGradient2237)"/>
 <polygon transform="translate(-64.1 -20.807)" points="134 124.35 99.7 104.55 65.4 124.35 99.7 144.15" style="fill:url(#linearGradient2229)"/>
 <g transform="translate(0 .14234)">
  <g>
   <path d="m229.51 83.631a1 1 0 0 1-0.54-1.84l1.26-0.81a1.0013 1.0013 0 0 1 1.09 1.68l-1.26 0.81a1 1 0 0 1-0.55 0.16z" style="fill:#e6e6e6"/>
   <polygon transform="translate(-65.4,-46.819)" points="276.03 124.35 261.88 124.35 261.88 132.52 296.17 152.32 330.47 132.52 330.47 124.35 316.31 124.35 296.17 112.72" style="fill:#24285b"/>
   <polygon transform="translate(-65.4,-46.819)" points="276.03 124.35 261.88 124.35 261.88 132.52 296.17 152.32 330.47 132.52 330.47 124.35 316.31 124.35 296.17 112.72" style="fill:#fff;opacity:.22"/>
   <polygon transform="translate(-65.4,-46.819)" points="330.47 124.35 296.17 104.55 261.88 124.35 296.17 144.15" style="fill:#24285b"/>
   <ellipse cx="230.77" cy="76.771" rx="14.6" ry="9.47" style="opacity:.09"/>
   <polygon transform="translate(-65.4,-46.819)" points="320.58 91.2 296.59 108.27 272.6 91.2 296.59 79.2" style="fill:#24285b"/>
   <polygon transform="translate(-65.4,-46.819)" points="296.59 100.95 296.59 53.65 272.6 86.03" style="fill:#68e1fd"/>
   <polygon transform="translate(-65.4,-46.819)" points="296.59 100.95 296.59 53.65 320.58 86.03" style="fill:#68e1fd"/>
   <polygon transform="translate(-65.4,-46.819)" points="296.59 100.95 296.59 53.65 320.58 86.03" style="fill:#fff;opacity:.44"/>
   <polygon transform="translate(-65.4,-46.819)" points="296.59 108.27 296.59 124.65 272.6 91.2" style="fill:#68e1fd"/>
   <polygon transform="translate(-65.4,-46.819)" points="296.59 108.27 296.59 124.65 320.58 91.2" style="fill:#68e1fd"/>
   <polygon transform="translate(-65.4,-46.819)" points="296.59 108.27 296.59 124.65 320.58 91.2" style="fill:#fff;opacity:.44"/>
  </g>
  <g>
   <path d="m35.6 83.601a1 1 0 0 1-0.52-0.15l-1.28-0.78a1 1 0 0 1-0.33-1.37 1 1 0 0 1 1.37-0.34l1.28 0.78a1 1 0 0 1 0.34 1.38 1 1 0 0 1-0.86 0.48z" style="fill:#e6e6e6"/>
   <polygon transform="translate(-65.4,-46.819)" points="79.56 124.35 65.4 124.35 65.4 132.52 99.7 152.32 134 132.52 134 124.35 119.84 124.35 99.7 112.72" style="fill:#24285b"/>
   <polygon transform="translate(-65.4,-46.819)" points="79.56 124.35 65.4 124.35 65.4 132.52 99.7 152.32 134 132.52 134 124.35 119.84 124.35 99.7 112.72" style="fill:#fff;opacity:.22"/>
   <polygon transform="translate(-65.4,-46.819)" points="134 124.35 99.7 104.55 65.4 124.35 99.7 144.15" style="fill:#24285b"/>
   <ellipse cx="33.09" cy="76.771" rx="14.6" ry="9.47" style="opacity:.09"/>
   <polygon transform="translate(-65.4,-46.819)" points="123.69 91.2 99.7 108.27 75.71 91.2 99.7 79.2" style="fill:#24285b"/>
   <polygon transform="translate(-65.4,-46.819)" points="99.7 100.95 99.7 53.65 75.71 86.03" style="fill:#68e1fd"/>
   <polygon transform="translate(-65.4,-46.819)" points="99.7 100.95 99.7 53.65 123.69 86.03" style="fill:#68e1fd"/>
   <polygon transform="translate(-65.4,-46.819)" points="99.7 100.95 99.7 53.65 123.69 86.03" style="fill:#fff;opacity:.44"/>
   <polygon transform="translate(-65.4,-46.819)" points="99.7 108.27 99.7 124.65 75.71 91.2" style="fill:#68e1fd"/>
   <polygon transform="translate(-65.4,-46.819)" points="99.7 108.27 99.7 124.65 123.69 91.2" style="fill:#68e1fd"/>
   <polygon transform="translate(-65.4,-46.819)" points="99.7 108.27 99.7 124.65 123.69 91.2" style="fill:#fff;opacity:.44"/>
  </g>
  <g>
   <path d="m130 160a2.0524 2.0524 0 0 1-1.1083-3.7764l2.586-1.6624a2.0551 2.0551 0 0 1 2.2371 3.448l-2.586 1.6624a2.0524 2.0524 0 0 1-1.1288 0.32838z" style="fill:#e6e6e6;stroke-width:2.0524"/>
   <polygon transform="matrix(2.0524,0,0,2.0524,-475.27,-107.74)" points="296.17 112.72 276.03 124.35 261.88 124.35 261.88 132.52 296.17 152.32 330.47 132.52 330.47 124.35 316.31 124.35" style="fill:#24285b"/>
   <polygon transform="matrix(2.0524,0,0,2.0524,-475.27,-107.74)" points="296.17 112.72 276.03 124.35 261.88 124.35 261.88 132.52 296.17 152.32 330.47 132.52 330.47 124.35 316.31 124.35" style="fill:#fff;opacity:.22"/>
   <polygon transform="matrix(2.0524,0,0,2.0524,-475.27,-107.74)" points="296.17 144.15 330.47 124.35 296.17 104.55 261.88 124.35" style="fill:#24285b"/>
   <ellipse cx="132.59" cy="145.92" rx="29.965" ry="19.436" style="opacity:.09;stroke-width:2.0524"/>
   <path d="m135.6 144.41a0.92 0.92 0 0 1-0.51-0.15l-1.29-0.78a1 1 0 0 1-0.33-1.37 1 1 0 0 1 1.37-0.34l0.75 0.46 0.73-0.48a1.0013 1.0013 0 0 1 1.09 1.68l-1.26 0.82a1.1 1.1 0 0 1-0.55 0.16z" style="fill:#e6e6e6"/>
   <polygon transform="translate(-65.4,-46.819)" points="245.25 120.04 197.99 153.66 150.73 120.04 197.99 96.42" style="fill:#24285b"/>
   <polygon transform="translate(-65.4,-46.819)" points="197.99 139.26 197.99 46.08 150.73 109.86" style="fill:#68e1fd"/>
   <polygon transform="translate(-65.4,-46.819)" points="197.99 139.26 197.99 46.08 245.25 109.86" style="fill:#68e1fd"/>
   <polygon transform="translate(-65.4,-46.819)" points="197.99 139.26 197.99 46.08 245.25 109.86" style="fill:#fff;opacity:.44"/>
   <polygon transform="translate(-65.4,-46.819)" points="197.99 153.66 197.99 185.94 150.73 120.04" style="fill:#68e1fd"/>
   <polygon transform="translate(-65.4,-46.819)" points="197.99 153.66 197.99 185.94 245.25 120.04" style="fill:#68e1fd"/>
   <polygon transform="translate(-65.4,-46.819)" points="197.99 153.66 197.99 185.94 245.25 120.04" style="fill:#fff;opacity:.44"/>
  </g>
 </g>
</svg>
