<svg width="215.06mm" height="215.06mm" version="1.1" viewBox="0 0 215.06 215.06" xmlns="http://www.w3.org/2000/svg">
 <g transform="translate(-.88333 -48.419)">
  <g id="topGear" transform="translate(8.3155 33.262)">
   <path d="m102.05 124.64c-0.56719 0.56719-8.2553-2.168-8.8711-1.6539s0.70269 8.567 0.04334 9.0238c-0.65935 0.4568-7.7356-3.6072-8.4332-3.2113s-0.8383 8.5548-1.5686 8.8866c-0.73032 0.33173-6.9672-4.9304-7.7243-4.6655-0.75712 0.26493-2.3524 8.2677-3.1302 8.4637-0.77782 0.19599-5.9748-6.0952-6.7671-5.9698s-3.7908 7.7148-4.5911 7.7687c-0.80031 0.054-4.7905-7.0641-5.5924-7.0821-0.80193-0.018-5.1074 6.9139-5.9045 6.8241-0.79709-0.0898-3.4521-7.806-4.2379-7.9669s-6.2599 5.8908-7.0281 5.6602c-0.76824-0.23069-2.0028-8.2969-2.7473-8.5956-0.74447-0.29863-7.2111 4.6784-7.9258 4.3143s-0.48917-8.5212-1.1684-8.948-7.9306 3.3157-8.5688 2.8297c-0.6382-0.48592 1.0402-8.4716 0.44815-9.0128-0.59207-0.54117-8.3952 1.8463-8.9363 1.2542-0.54117-0.59207 2.5362-8.1498 2.0502-8.788-0.48592-0.63819-8.5899 0.31763-9.0167-0.36155-0.42676-0.67919 3.9506-7.5659 3.5864-8.2806-0.36416-0.7147-8.5086-1.2213-8.8072-1.9657-0.29863-0.74447 5.2381-6.7389 5.0074-7.5072-0.23069-0.76824-8.1538-2.7209-8.3147-3.5067-0.1609-0.78583 6.3572-5.6953 6.2674-6.4924s-7.5369-4.1331-7.5549-4.935c-0.017998-0.80193 7.2719-4.4687 7.3259-5.269s-6.6778-5.4125-6.5523-6.2047c0.12548-0.79226 7.953-3.0984 8.149-3.8762 0.19599-0.77782-5.6041-6.5178-5.3391-7.275s8.3784-1.6286 8.7102-2.3589-4.3502-7.4137-3.9543-8.1114c0.39586-0.69765 8.5346-0.10637 8.9914-0.76573 0.4568-0.65935-2.9565-8.0714-2.4424-8.6871s8.4164 1.4192 8.9836 0.85205-1.4678-8.4696-0.85205-8.9836c0.61575-0.51407 8.0278 2.8992 8.6871 2.4424s0.06808-8.5955 0.76573-8.9914 7.3811 4.2861 8.1114 3.9543c0.73032-0.33173 1.6018-8.4452 2.3589-8.7102 0.75712-0.26493 6.4971 5.5351 7.275 5.3391 0.77782-0.19599 3.084-8.0235 3.8762-8.149s5.4044 6.6063 6.2047 6.5523c0.80031-0.05396 4.4671-7.3439 5.269-7.3259 0.80193 0.018 4.1379 7.4651 4.935 7.5549s5.7066-6.4283 6.4924-6.2674c0.78583 0.1609 2.7385 8.084 3.5067 8.3147 0.76824 0.23069 6.7627-5.306 7.5072-5.0074 0.74447 0.29863 1.251 8.4431 1.9657 8.8072 0.7147 0.36416 7.6014-4.0132 8.2806-3.5864 0.67918 0.42676-0.27664 8.5308 0.36156 9.0167 0.6382 0.48592 8.1959-2.5914 8.7879-2.0502 0.59207 0.54117-1.7954 8.3443-1.2542 8.9363 0.54117 0.59207 8.5269-1.0863 9.0128-0.44815 0.48592 0.63819-3.2565 7.8896-2.8297 8.5688 0.42676 0.67918 8.5838 0.45365 8.948 1.1684 0.36416 0.7147-4.6129 7.1813-4.3143 7.9258 0.29863 0.74447 8.3649 1.9791 8.5956 2.7473 0.23069 0.76824-5.821 6.2423-5.6602 7.0281 0.16089 0.78583 7.8771 3.4409 7.9669 4.2379 0.0898 0.79709-6.8421 5.1026-6.8241 5.9045 0.018 0.80193 7.1361 4.7921 7.0821 5.5924-0.054 0.80031-7.6432 3.7989-7.7687 4.5911-0.12549 0.79226 6.1658 5.9893 5.9698 6.7671s-8.1987 2.3731-8.4636 3.1302c-0.26493 0.75712 4.9972 6.9939 4.6655 7.7243-0.33173 0.73032-8.4907 0.87098-8.8866 1.5686-0.39586 0.69765 3.6681 7.7738 3.2113 8.4332s-8.5098-0.65909-9.0238-0.0433c-0.51406 0.61575 2.2211 8.3039 1.6539 8.8711z" style="fill:#6000c0;opacity:.6;stroke-width:0"/>
   <circle cx="57.074" cy="78.908" r="10.961" style="fill:#fff;stroke-width:0"/>
  </g>
  <g transform="translate(95.25 120.2)">
   <path d="m102.05 124.64c-0.56719 0.56719-8.2553-2.168-8.8711-1.6539s0.70269 8.567 0.04334 9.0238c-0.65935 0.4568-7.7356-3.6072-8.4332-3.2113s-0.8383 8.5548-1.5686 8.8866c-0.73032 0.33173-6.9672-4.9304-7.7243-4.6655-0.75712 0.26493-2.3524 8.2677-3.1302 8.4637-0.77782 0.19599-5.9748-6.0952-6.7671-5.9698s-3.7908 7.7148-4.5911 7.7687c-0.80031 0.054-4.7905-7.0641-5.5924-7.0821-0.80193-0.018-5.1074 6.9139-5.9045 6.8241-0.79709-0.0898-3.4521-7.806-4.2379-7.9669s-6.2599 5.8908-7.0281 5.6602c-0.76824-0.23069-2.0028-8.2969-2.7473-8.5956-0.74447-0.29863-7.2111 4.6784-7.9258 4.3143s-0.48917-8.5212-1.1684-8.948-7.9306 3.3157-8.5688 2.8297c-0.6382-0.48592 1.0402-8.4716 0.44815-9.0128-0.59207-0.54117-8.3952 1.8463-8.9363 1.2542-0.54117-0.59207 2.5362-8.1498 2.0502-8.788-0.48592-0.63819-8.5899 0.31763-9.0167-0.36155-0.42676-0.67919 3.9506-7.5659 3.5864-8.2806-0.36416-0.7147-8.5086-1.2213-8.8072-1.9657-0.29863-0.74447 5.2381-6.7389 5.0074-7.5072-0.23069-0.76824-8.1538-2.7209-8.3147-3.5067-0.1609-0.78583 6.3572-5.6953 6.2674-6.4924s-7.5369-4.1331-7.5549-4.935c-0.017998-0.80193 7.2719-4.4687 7.3259-5.269s-6.6778-5.4125-6.5523-6.2047c0.12548-0.79226 7.953-3.0984 8.149-3.8762 0.19599-0.77782-5.6041-6.5178-5.3391-7.275s8.3784-1.6286 8.7102-2.3589-4.3502-7.4137-3.9543-8.1114c0.39586-0.69765 8.5346-0.10637 8.9914-0.76573 0.4568-0.65935-2.9565-8.0714-2.4424-8.6871s8.4164 1.4192 8.9836 0.85205-1.4678-8.4696-0.85205-8.9836c0.61575-0.51407 8.0278 2.8992 8.6871 2.4424s0.06808-8.5955 0.76573-8.9914 7.3811 4.2861 8.1114 3.9543c0.73032-0.33173 1.6018-8.4452 2.3589-8.7102 0.75712-0.26493 6.4971 5.5351 7.275 5.3391 0.77782-0.19599 3.084-8.0235 3.8762-8.149s5.4044 6.6063 6.2047 6.5523c0.80031-0.05396 4.4671-7.3439 5.269-7.3259 0.80193 0.018 4.1379 7.4651 4.935 7.5549s5.7066-6.4283 6.4924-6.2674c0.78583 0.1609 2.7385 8.084 3.5067 8.3147 0.76824 0.23069 6.7627-5.306 7.5072-5.0074 0.74447 0.29863 1.251 8.4431 1.9657 8.8072 0.7147 0.36416 7.6014-4.0132 8.2806-3.5864 0.67918 0.42676-0.27664 8.5308 0.36156 9.0167 0.6382 0.48592 8.1959-2.5914 8.7879-2.0502 0.59207 0.54117-1.7954 8.3443-1.2542 8.9363 0.54117 0.59207 8.5269-1.0863 9.0128-0.44815 0.48592 0.63819-3.2565 7.8896-2.8297 8.5688 0.42676 0.67918 8.5838 0.45365 8.948 1.1684 0.36416 0.7147-4.6129 7.1813-4.3143 7.9258 0.29863 0.74447 8.3649 1.9791 8.5956 2.7473 0.23069 0.76824-5.821 6.2423-5.6602 7.0281 0.16089 0.78583 7.8771 3.4409 7.9669 4.2379 0.0898 0.79709-6.8421 5.1026-6.8241 5.9045 0.018 0.80193 7.1361 4.7921 7.0821 5.5924-0.054 0.80031-7.6432 3.7989-7.7687 4.5911-0.12549 0.79226 6.1658 5.9893 5.9698 6.7671s-8.1987 2.3731-8.4636 3.1302c-0.26493 0.75712 4.9972 6.9939 4.6655 7.7243-0.33173 0.73032-8.4907 0.87098-8.8866 1.5686-0.39586 0.69765 3.6681 7.7738 3.2113 8.4332s-8.5098-0.65909-9.0238-0.0433c-0.51406 0.61575 2.2211 8.3039 1.6539 8.8711z" style="fill:#6000c0;opacity:.6;stroke-width:0"/>
   <circle cx="57.074" cy="78.908" r="10.961" style="fill:#fff;stroke-width:0"/>
  </g>
 </g>
</svg>
