<svg xmlns="http://www.w3.org/2000/svg" fill='grey' opacity='.25' viewBox="0 0 928 454"><path class="fill-gray-darker" d="m26 96-10 10v6l28-28h29l32 32v15l10 10v39l36 36h12v12l14 14h28l27 27-6 6v27l28 28v41l-10 10v55l17 17h5v-4l-7-7v-13l8-8v-21l69-69v-18l9-9v-10l-9-9h-20l-20-20h-9l-13-13h-26l-9 9-31-31h-25v-20l12-12h19l10 10h6l-9-9 18-18v-10l28-28v-13h24v-18l-20-20h-14V81l-9-9h-13v54h-9l-6-6v-9l-29-29 33-33V29h-37l-10 10h-39l-14-14H68l-8-8H22L5 34l14 14H1v23l25 25zM733 379h20l10-10h22l20 20h13l15-15v-30l-33-33v17l-11-11h-26l-19 19h-11v43zM810 159l-3 3v14l-11 11h-10l-14 14v-11l9-9h9l11-11v-16l3-3v-20l-32 32v16l-4 4-18-18-7 7v12l9 9v11l-19 19h-15l-8 8 9 9v8l-10 10-11-11v14l12 12h-8l-11-11v-23l-17-17h-10l-19 19v21l-19-19v-13l-21-21h-28l-12-12-6 6 14 14h15v11l-11 11h-24l-14-14v-12l-11-11-6 6 8 8v16l18 18h21v10l-29 29v29l-12 12v22l-25 25h-22v-22l-10-10v-49l-8-8v-11l-10-10h-41l-20-20v-32l30-30h12l6-6h16l16 16h57v-15h-22l17-17h20v-6l-13-13h-21v11l-13 13-21-21-6 6 15 15h-8l-13-13h-14l-21 21h-16v-20h20v-20l22-22h24l17-17V53l-13 13v22l-15 15-14-14V74l16-16V45l20-20h35l22 22h7l12-12h26l34-34h191l14 14h9l10 10h54l23 23-7 7h-22v10l-16 16h-14l-10 10v21l-12 12h-5V98l24-24h-15l-15 15h-29l-18 18 22 22v30z"/><path class="fill-gray-darker" d="m565 312-16 16v17l6 6 6-6v-10l4-4v-19zM429 107V95l-16 16v12h7v-16l7 7v11h10v-10l-8-8zM884 373v7l5 5v12h-4l-17 17 2 2h5l25-25v-6h-4l-12-12zM712 287l-6-6h-4l-13-13h-7l14 14v4l17 17h22l-3-3h-11l-5-5h-4v-8zM720 275h7l12-12 3 3v15l-9 9h-8l-5-5v-10zM777 286l6 6h5l13 13h6l4.5-4.5 7.5 7.5h7l-10-10v-3l-8-8.5h-17l-1.75 1.75H785V283h-8v3zM742 302v2h2l3 2 3-2h3l2-2h-13zM758 279l-1 1h-6v6l2 2v4h-5l-2-2v-5l6-6h6zM764 290h9l-1-1h-8v1zM813 398h7v3l-4 4h-3v-7zM218 222h11l6 6h7l2-2h-8l-6-6h-10l-2 2zM249 229l-3 3h11v-1l-2-2h-6zM745 252l-4 4v1l4-4v-1zM749 233v17l5-5 6 6h3l-10-10v-8h-4zM752 254l2-2 3 3v3l2 2 4-4v8l-2 2-6-6-2 2v-1l3-3-4-4zM753 213l-4 4v5h4v-5l2-2-2-2z"/></svg>