<svg class="illustration styles_illustrationTablet__1DWOa" width="229.03" height="239.06" data-name="Layer 2" version="1.1" viewBox="0 0 373.43 381.43" xmlns="http://www.w3.org/2000/svg" xmlns:xlink="http://www.w3.org/1999/xlink">
 <defs>
  <linearGradient id="linear-gradient" x1="46.63" x2="79.24" y1="200.12" y2="176.03" gradientUnits="userSpaceOnUse">
   <stop stop-color="#2e3192" stop-opacity="0" offset=".01"/>
   <stop stop-color="#666" offset="1"/>
  </linearGradient>
  <linearGradient id="linear-gradient-2" x1="196.24" x2="227.73" y1="207.55" y2="163.09" gradientTransform="translate(-22.08 -5.8293)" xlink:href="#linear-gradient"/>
  <linearGradient id="linear-gradient-3" x1="292.83" x2="325.44" y1="225.15" y2="201.06" gradientTransform="translate(-22.08 -5.8293)" xlink:href="#linear-gradient"/>
  <linearGradient id="linear-gradient-4" x1="122.21" x2="188.09" y1="256.36" y2="201.2" gradientTransform="translate(-22.08 -5.8293)" xlink:href="#linear-gradient"/>
  <linearGradient id="linearGradient1010" x1="46.63" x2="79.24" y1="200.12" y2="176.03" gradientTransform="translate(-22.08 -5.8293)" gradientUnits="userSpaceOnUse" xlink:href="#linear-gradient"/>
 </defs>
 <title>PP</title>
 <path id="pay-shadow" d="m173.93 379.76-165.73-98c-5.28-3-9.8-7.83-4.66-11l166.33-95.9c2.5-1.55 6.29-2.56 8.82-1.09l174 101c5.28 3.06 6.22 11.63 0.94 14.69l-157.85 90.11a22 22 0 0 1-21.85 0.19z" style="fill:#e4e4e4"/>
 <g id="pay-platform">
  <path d="m172.65 286.17-165.73-98c-5.28-3-9.8-7.83-4.66-11l166.33-95.9c2.5-1.55 6.29-2.56 8.82-1.09l174 101c5.28 3.06 6.22 11.63 0.94 14.69l-157.85 90.11a22 22 0 0 1-21.85 0.19z" style="fill:#a6bfdb"/>
  <path d="m48.48 173.67-35.26 17.12a108 108 0 0 0 16.37 9l35.92-23.95" style="fill:url(#linearGradient1010);opacity:.48"/>
  <path d="m208.68 171.97c-9.26-5.86-18.51-11.78-27.13-18.53l-48.28 27.66 50 39c5.74-3.63 35.76-18.67 53.08-27.88v-2c-9.22-6.05-18.32-12.34-27.67-18.25z" style="fill:url(#linear-gradient-2);opacity:.48"/>
  <path d="m191.52 88.731a2.68 2.68 0 0 0-1.37-1.83 1.41 1.41 0 0 0-1.88 0.49 1.56 1.56 0 0 0-0.14 1 3 3 0 0 0 0.79 2.78 1.39 1.39 0 0 0 2 0 2.81 2.81 0 0 0 0.6-2.44z" style="fill:#5a2500"/>
  <path d="m234.42 43.751-52.35-30.92a6.36 6.36 0 0 0-5-0.34h-0.08a6.59 6.59 0 0 0-1.11 0.49l-4.96 2.19 2.65 1.17 1.63 134a13.49 13.49 0 0 0 6.7 11.66l48.81 28.44-0.76 4.58 6.62-3.5a4.06 4.06 0 0 0 2.11-3.58v-136.72a8.67 8.67 0 0 0-4.26-7.47z" style="fill:#68e1fd"/>
  <path d="m234.42 43.751-52.35-30.92a6.36 6.36 0 0 0-5-0.34h-0.08a6.59 6.59 0 0 0-1.11 0.49l-4.96 2.19 2.65 1.17 1.63 134a13.49 13.49 0 0 0 6.7 11.66l48.81 28.44-0.76 4.58 6.62-3.5a4.06 4.06 0 0 0 2.11-3.58v-136.72a8.67 8.67 0 0 0-4.26-7.47z" style="fill:#3f3d56;opacity:.33"/>
  <path d="m226.18 194.8-50.61-29.49a13.49 13.49 0 0 1-6.7-11.66v-135.23a3.58 3.58 0 0 1 5.41-3.09l53.8 31.78a8.67 8.67 0 0 1 4.26 7.47v136.68a4.1 4.1 0 0 1-6.16 3.54z" style="fill:#f4f4f4"/>
  <polygon transform="translate(-22.08 -5.8293)" points="193.55 153.91 251.21 187.24 251.21 68.67 193.55 35.6" style="fill:#054f70"/>
  <ellipse transform="rotate(-13.43)" cx="150.2" cy="210.29" rx="2.66" ry="3.59" style="fill:#bababc"/>
  <path d="m192.78 35.461a1.29 1.29 0 0 0 0.65 1.12l11.14 6.4a1.29 1.29 0 0 0 1.93-1.12v-0.27a1.29 1.29 0 0 0-0.67-1.13l-11.14-6.13a1.29 1.29 0 0 0-1.91 1.13z" style="fill:#ccc"/>
  <ellipse transform="rotate(-20.422)" cx="165.4" cy="95.217" rx="1.2638" ry="1.7252" style="fill:#ccc;stroke-width:1.003"/>
  <path d="m338.67 217.74-1-0.5c-0.57-0.29-1.08 0.58-0.5 0.86l1 0.5c0.57 0.29 1.08-0.57 0.5-0.86z" style="fill:#fa4e76"/>
  <path d="m372.92 173.61a18.84 18.84 0 0 0-5.41 0.89 0.51 0.51 0 0 0-0.35 0.62 6.75 6.75 0 0 0 3.5 4.18c0.57 0.28 1.08-0.58 0.5-0.86a5.74 5.74 0 0 1-2.85-3.12 17.85 17.85 0 0 1 4.61-0.7 0.505 0.505 0 0 0 0-1.01z" style="fill:#f2f2f2"/>
  <path d="m177.92 52.171v-0.24c0-2.63 3.28-4.27 5.9-2.95l36.9 20.55a12 12 0 0 1 1.77 1.05c2.6 2.16-0.17 7.44-5.12 5.13l-37.45-20.54a3.36 3.36 0 0 1-2-3z" style="fill:#031e28"/>
  <path d="m216.54 111.28c1.83 14.58-4.9 27.28-15 28.37s-19.81-9.84-21.64-24.41 4.9-27.28 15-28.37 19.81 9.84 21.64 24.41z" style="fill:#79c83b"/>
  <polygon transform="translate(-22.08 -5.8293)" points="215.88 124.16 227.74 105.85 232.43 109.69 216.35 134.09 207.58 120.71 210.55 116.03" style="fill:#fff"/>
  <path d="m294.68 198.7-35.26 17.12a108 108 0 0 0 16.37 9l35.92-23.95" style="fill:url(#linear-gradient-3);opacity:.48"/>
  <path d="m291.32 166.11a0.94 0.94 0 0 1-0.21-0.31c-1.51-0.76-3-1.48-4.59-2.15-0.48-0.36-1-0.69-1.46-1a0.84 0.84 0 0 1-0.66 0.27 39.7 39.7 0 0 1-6.73-0.76 2.72 2.72 0 0 0-0.23 0.6 17.48 17.48 0 0 1 3.93 8.18c0.43 0.49 0.89 1 1.39 1.54 2.23 0.88 5.26 0.69 7.8 1a4.31 4.31 0 0 0 0.28-0.8h0.11a19.9 19.9 0 0 1 2.49 1.11 10 10 0 0 1 4.6 1.9 3.14 3.14 0 0 0 1-0.62c-2.61-2.9-4.89-6.17-7.72-8.96z" style="fill:#1b896c"/>
  <path d="m304.23 168.53 6.26-4.93s8.45-2.68 8.33-11.75-2.83-11.5-2.83-11.5-10.53 15.82-11.76 28.18z" style="fill:#1b896c"/>
  <path d="m291.01 185.75 3.2 14.93a3.36 3.36 0 0 0 1.8 2.31c1.86 0.91 5.7 1.86 13 0.54a3.38 3.38 0 0 0 2.7-2.6l3.28-15.18" style="fill:#68e1fd"/>
  <ellipse cx="303" cy="185.75" rx="11.99" ry="4.91" style="fill:#56403d"/>
  <path d="m319.49 148.79c-0.28-3.61-2.66-6.84-2.3-10.48 0.07-0.68-0.86-0.79-1.18-0.32a72 72 0 0 0-11.78 30.54 0.64 0.64 0 0 0-0.07 0.44 71.94 71.94 0 0 0-0.45 14.74 9.16 9.16 0 0 0 1.25-0.2 71.11 71.11 0 0 1 0.47-14.46c2.13-2.53 5.15-3.73 7.72-5.74a16.43 16.43 0 0 0 5-6.46 17.09 17.09 0 0 0 1.34-8.06zm-2.57 7.55a16 16 0 0 1-6.45 7.25c-1.19 0.75-2.37 1.46-3.47 2.27a109.21 109.21 0 0 0 5.92-13.86c0.27-0.77-1-1.1-1.22-0.34a107 107 0 0 1-5.53 13.11 70.93 70.93 0 0 1 9.83-24.43c0.31 2.05 1.28 3.9 1.82 6a15.55 15.55 0 0 1-0.9 10z" style="fill:#37b596"/>
  <path d="m303.1 183.74c-1-2.58-2-5.19-3.16-7.68a0.65 0.65 0 0 0-0.26-0.61 29.37 29.37 0 0 0-5.9-8.26c-4.78-4.53-11-5.63-17.34-6.36-0.64-0.07-0.76 0.7-0.39 1.07a0.59 0.59 0 0 0 0.27 0.37c3.76 2.33 2.66 8.26 6.64 10.45 1.87 1 4.14 0.72 6.18 0.8a19.06 19.06 0 0 1 7.83 1.79 18.32 18.32 0 0 1 4.32 8.35 10.64 10.64 0 0 0 1.81 0.08zm-17.34-17.23c-0.77-0.28-1.1 0.94-0.34 1.22a29.72 29.72 0 0 1 9.19 5.28 18.36 18.36 0 0 0-2-0.45c-2.65-0.43-6.72 0.4-9.06-1-3.27-1.9-3-6.54-5.33-9.31 5.69 0.76 11.1 2.12 15.29 6.43a26.77 26.77 0 0 1 3.9 5.24 29.88 29.88 0 0 0-11.65-7.41z" style="fill:#37b596"/>
  <path d="m31.48 136.4v49.16a4.19 4.19 0 0 0 6.33 3.6l72.95-43.43a4.19 4.19 0 0 0 2-3.6v-50.07a4.19 4.19 0 0 0-6.3-3.61l-71.45 41.79a7.13 7.13 0 0 0-3.53 6.16z" style="fill:#054f70"/>
  <path d="m34.61 137.62v49.16a4.19 4.19 0 0 0 6.31 3.59l73-43.43a4.19 4.19 0 0 0 2-3.6v-50.06a4.19 4.19 0 0 0-6.3-3.61l-71.47 41.79a7.13 7.13 0 0 0-3.54 6.16z" style="fill:#68e1fd"/>
  <ellipse transform="rotate(-68.49)" cx="-90.509" cy="148.93" rx="7.65" ry="5.19" style="fill:#fbf472"/>
  <ellipse transform="rotate(-68.49)" cx="-97.074" cy="143.56" rx="7.65" ry="5.19" style="fill:#e2347c"/>
  <path d="m43.71 134.57c0.92-0.52 1.54-0.25 1.74 0.74l-0.7 0.65c-0.18-0.56-0.53-0.69-1-0.4a2.24 2.24 0 0 0-0.86 1 3.84 3.84 0 0 0-0.35 1.64 1.77 1.77 0 0 0 0.33 1.27 0.69 0.69 0 0 0 0.86 0 2.36 2.36 0 0 0 1-1.59l0.7-0.16a3.79 3.79 0 0 1-1.75 2.74 1.19 1.19 0 0 1-1.41 0 2.25 2.25 0 0 1-0.57-1.84 5.33 5.33 0 0 1 0.59-2.49 3.78 3.78 0 0 1 1.42-1.56z" style="fill:#fff"/>
  <path d="m48.16 135.27 1.15 1.9-0.87 0.5-1.12-1.84-0.41 0.23v2.48l-0.78 0.45v-5.75l1.53-0.87c0.82-0.47 1.28-0.08 1.27 0.91a2.81 2.81 0 0 1-0.77 1.99zm-0.49-0.62a1 1 0 0 0 0.5-0.93q0-0.65-0.49-0.37l-0.76 0.43v1.3l0.76-0.43" style="fill:#fff"/>
  <polygon transform="translate(-22.08 -5.8293)" points="72.75 137.48 72.74 138.68 74.2 137.85 74.2 138.84 72.74 139.67 72.73 141.25 74.61 140.18 74.61 141.17 71.94 142.69 71.97 136.94 74.57 135.45 74.57 136.44" style="fill:#fff"/>
  <path d="m54.59 128.43c1-0.56 2-0.25 1.94 1.76a4.58 4.58 0 0 1-2 4l-1.31 0.75v-5.75zm0.68 4a3.27 3.27 0 0 0 0.47-1.79c0-0.72-0.17-1.15-0.46-1.25a1.11 1.11 0 0 0-0.95 0.17l-0.29 0.17v3.78l0.29-0.17a2.78 2.78 0 0 0 1-0.91" style="fill:#fff"/>
  <polygon transform="translate(-22.08 -5.8293)" points="79.31 138.49 79.34 132.73 80.11 132.29 80.08 138.04" style="fill:#fff"/>
  <polygon transform="translate(-22.08 -5.8293)" points="82.73 131.78 82.71 136.54 81.93 136.99 81.95 132.22 80.78 132.89 80.79 131.9 83.91 130.12 83.9 131.11" style="fill:#fff"/>
  <path d="m65.64 122.05c0.92-0.52 1.54-0.25 1.74 0.74l-0.7 0.65c-0.18-0.56-0.53-0.69-1-0.4a2.22 2.22 0 0 0-0.86 1 3.76 3.76 0 0 0-0.35 1.64 1.73 1.73 0 0 0 0.33 1.27 0.68 0.68 0 0 0 0.85 0 2.36 2.36 0 0 0 1-1.59l0.7-0.16a3.79 3.79 0 0 1-1.75 2.74 1.19 1.19 0 0 1-1.41 0 2.25 2.25 0 0 1-0.57-1.84 5.33 5.33 0 0 1 0.59-2.49 3.78 3.78 0 0 1 1.43-1.56z" style="fill:#fff"/>
  <path d="m69.8 119.74 1.39 4.94-0.84 0.48-0.31-1.18-1.33 0.76-0.31 1.53-0.84 0.48 1.46-6.58zm-0.88 3.89 0.89-0.51-0.44-1.74-0.45 2.25" style="fill:#fff"/>
  <path d="m73.76 120.65 1.16 1.91-0.88 0.5-1.12-1.84-0.41 0.23v2.48l-0.78 0.44v-5.75l1.53-0.87c0.82-0.47 1.28-0.08 1.27 0.91a2.82 2.82 0 0 1-0.77 1.99zm-0.49-0.62a1 1 0 0 0 0.5-0.93q0-0.65-0.49-0.37l-0.76 0.43v1.3l0.76-0.43" style="fill:#fff"/>
  <path d="m76.82 115.74c1-0.56 2-0.25 1.94 1.76a4.58 4.58 0 0 1-2 4l-1.32 0.75v-5.75zm0.68 4a3.27 3.27 0 0 0 0.47-1.79c0-0.72-0.17-1.15-0.46-1.25a1.11 1.11 0 0 0-0.95 0.17l-0.29 0.17v3.78l0.29-0.17a2.78 2.78 0 0 0 1-0.91" style="fill:#fff"/>
  <path d="m43.3 149.76v9.19a2.21 2.21 0 0 0 3.3 1.92l12.82-7.33a2.21 2.21 0 0 0 1.11-1.92v-9.38a2.21 2.21 0 0 0-3.32-1.9l-12.82 7.52a2.21 2.21 0 0 0-1.09 1.9z" style="fill:#d1d1f5"/>
  <polygon transform="translate(-22.08 -5.8293)" points="87.6 153.41 86.92 153.82 87.2 149.51 86.44 150.6 86.51 149.48 87.68 147.84 87.98 147.67" style="fill:#fff"/>
  <path d="m67.73 140.68 0.09-0.06c0.7-0.42 1.07 0 1 1a4.7 4.7 0 0 1-0.4 1.55l-1 2.38 1.32-0.8-0.06 1-2.42 1.42v-0.41l1.51-3.45a3.62 3.62 0 0 0 0.35-1.21c0-0.47-0.11-0.66-0.41-0.48a1.45 1.45 0 0 0-0.5 1l-0.61 0.2a3.39 3.39 0 0 1 0.42-1.3 2.45 2.45 0 0 1 0.71-0.84z" style="fill:#fff"/>
  <path d="m69.82 139.49 2.1-1.32v0.36l-1 2.37 0.15-0.11c0.58-0.35 0.89 0.13 0.82 1.15a4 4 0 0 1-0.45 1.63 2.72 2.72 0 0 1-0.83 1l-0.11 0.07c-0.34 0.21-0.62 0.23-0.83 0.06a1.22 1.22 0 0 1-0.31-1l0.66-0.52c0.05 0.51 0.23 0.66 0.55 0.47a1.72 1.72 0 0 0 0.61-1.28c0-0.65-0.17-0.87-0.53-0.65a1.27 1.27 0 0 0-0.29 0.29l-0.23-0.42 0.81-1.91-1.2 0.71z" style="fill:#fff"/>
  <path d="m74.76 140.11 0.42-0.25-0.06 1-0.42 0.25-0.07 1.06-0.67 0.39 0.07-1.06-1.61 1v-0.52l1.86-5.1 0.71-0.43zm-0.67 0.4 0.14-2.19-0.94 2.67 0.8-0.48" style="fill:#fff"/>
  <path d="m79.4 137.33 0.42-0.25-0.06 1-0.42 0.25-0.07 1.07-0.68 0.4 0.07-1.07-1.62 1v-0.52l1.86-5.1 0.71-0.43zm-0.68 0.41 0.14-2.19-0.94 2.62 0.79-0.48" style="fill:#fff"/>
  <path d="m81.01 132.8 1.93-1.16-0.06 1-1.38 0.82-0.17 1.25a2.06 2.06 0 0 1 0.48-0.49h0.07c0.76-0.45 1.1 0 1 1.22a4.19 4.19 0 0 1-0.44 1.63 2.63 2.63 0 0 1-0.83 1l-0.1 0.07a0.71 0.71 0 0 1-0.79 0.07 1.15 1.15 0 0 1-0.3-0.92l0.65-0.56c0 0.49 0.21 0.64 0.51 0.46h0.05a1.67 1.67 0 0 0 0.57-1.32c0-0.65-0.14-0.86-0.53-0.63h-0.06a2.17 2.17 0 0 0-0.64 0.87l-0.42 0.12z" style="fill:#fff"/>
  <path d="m85.78 132.43a1.44 1.44 0 0 1 0.26 1.13 3.89 3.89 0 0 1-0.45 1.55 2.79 2.79 0 0 1-0.83 1l-0.1 0.07c-0.35 0.21-0.64 0.21-0.86 0a1.37 1.37 0 0 1-0.27-1.12 4.1 4.1 0 0 1 0.25-1.12l1.29-3.65 0.75-0.45-1 2.62h0.08c0.4-0.29 0.67-0.29 0.88-0.03zm-0.42 1.54c0-0.57-0.18-0.78-0.52-0.57h-0.05a1.65 1.65 0 0 0-0.59 1.23c0 0.55 0.19 0.77 0.52 0.57a1.7 1.7 0 0 0 0.6-1.24" style="fill:#fff"/>
  <polygon transform="translate(-22.08 -5.8293)" points="111.05 134.27 109.29 140.44 108.62 140.83 110.22 135.28 108.74 136.15 108.81 135.2 111.08 133.84" style="fill:#fff"/>
  <path d="m92.6 128.4c0.32 0.09 0.45 0.45 0.41 1.08a3.45 3.45 0 0 1-0.44 1.51 2.7 2.7 0 0 1-0.79 0.94l-0.11 0.07a0.7 0.7 0 0 1-0.84 0 1.27 1.27 0 0 1-0.27-1.08 3.14 3.14 0 0 1 0.58-1.67c-0.22-0.14-0.31-0.45-0.27-0.94a3.24 3.24 0 0 1 0.37-1.29 2.36 2.36 0 0 1 0.73-0.87l0.08-0.05c0.32-0.18 0.57-0.19 0.74 0a1.15 1.15 0 0 1 0.23 0.93 3 3 0 0 1-0.42 1.37zm-0.27 1.49a0.64 0.64 0 0 0-0.12-0.51c-0.09-0.08-0.22-0.09-0.37 0a1.21 1.21 0 0 0-0.37 0.43 1.7 1.7 0 0 0-0.19 0.7 0.65 0.65 0 0 0 0.11 0.52c0.09 0.08 0.22 0.08 0.38 0h0.05a1.19 1.19 0 0 0 0.36-0.42 1.74 1.74 0 0 0 0.19-0.69m0.07-2.46c0-0.43-0.13-0.61-0.41-0.44a1.3 1.3 0 0 0-0.46 1c0 0.44 0.13 0.63 0.4 0.47a1.34 1.34 0 0 0 0.47-1" style="fill:#fff"/>
  <path d="m95.92 124.32a1.4 1.4 0 0 1 0.27 1.12 3.81 3.81 0 0 1-0.25 1.12l-1.28 3.61-0.76 0.46 1-2.62h-0.08c-0.35 0.21-0.63 0.21-0.84 0a1.52 1.52 0 0 1-0.26-1.15 3.85 3.85 0 0 1 0.45-1.56 2.74 2.74 0 0 1 0.83-1l0.1-0.07a0.66 0.66 0 0 1 0.82 0.09zm-0.4 1.52c0-0.55-0.19-0.77-0.52-0.57a1.71 1.71 0 0 0-0.59 1.24c0 0.57 0.18 0.78 0.52 0.57h0.05a1.63 1.63 0 0 0 0.59-1.23" style="fill:#fff"/>
  <polygon transform="translate(-22.08 -5.8293)" points="121.15 128.22 119.39 134.38 118.72 134.78 120.32 129.22 118.84 130.11 118.91 129.16 121.18 127.8" style="fill:#fff"/>
  <path d="m101.66 120.88a1.38 1.38 0 0 1 0.28 1.12 4 4 0 0 1-0.25 1.12l-1.29 3.65-0.75 0.45 1-2.62h-0.08c-0.35 0.22-0.63 0.22-0.84 0a1.5 1.5 0 0 1-0.26-1.15 3.9 3.9 0 0 1 0.45-1.56 2.75 2.75 0 0 1 0.83-1l0.11-0.07c0.3-0.16 0.59-0.15 0.8 0.06zm-0.4 1.53c0-0.55-0.19-0.77-0.52-0.57a1.7 1.7 0 0 0-0.59 1.23c0 0.56 0.18 0.77 0.52 0.57h0.05a1.65 1.65 0 0 0 0.59-1.23" style="fill:#fff"/>
  <g transform="translate(-22.08 -5.8293)" style="isolation:isolate">
   <polygon points="78.65 176.21 77.87 176.75 77.14 175.26 76.31 177.83 75.53 178.36 76.79 174.53 75.85 172.65 76.61 172.13 77.19 173.28 77.85 171.27 78.61 170.75 77.55 174" style="fill:#fff"/>
   <polygon points="75.46 178.42 74.68 178.95 73.95 177.47 73.12 180.03 72.34 180.57 73.6 176.73 72.66 174.86 73.42 174.33 74 175.48 74.65 173.48 75.42 172.95 74.36 176.21" style="fill:#fff"/>
  </g>
  <polygon transform="translate(-22.08 -5.8293)" points="81.84 174 81.07 174.54 80.34 173.06 79.51 175.62 78.72 176.16 79.98 172.32 79.04 170.45 79.81 169.92 80.39 171.07 81.04 169.07 81.8 168.54 80.74 171.8" style="fill:#fff"/>
  <polygon transform="translate(-22.08 -5.8293)" points="86.37 170.88 85.59 171.41 84.86 169.93 84.03 172.49 83.25 173.03 84.5 169.2 83.57 167.32 84.33 166.79 84.91 167.94 85.56 165.94 86.33 165.41 85.27 168.67" style="fill:#fff"/>
  <polygon transform="translate(-22.08 -5.8293)" points="89.56 168.67 88.78 169.21 88.05 167.72 87.22 170.29 86.45 170.82 87.7 166.99 86.76 165.11 87.53 164.59 88.1 165.74 88.75 163.74 89.52 163.21 88.46 166.46" style="fill:#fff"/>
  <polygon transform="translate(-22.08 -5.8293)" points="92.75 166.47 91.97 167 91.24 165.52 90.41 168.08 89.64 168.62 90.89 164.78 89.95 162.91 90.72 162.38 91.29 163.53 91.95 161.53 92.71 161 91.65 164.26" style="fill:#fff"/>
  <path d="m234.34 14.171a15.78 15.78 0 0 1 6.81 13.69c-0.43 12.68-3.23 15.11-3.23 15.11l-19.23-11.87-30.17-19.35s24.63-6.03 45.82 2.42z" style="fill:#666"/>
  <path d="m213.59 73.631-33.41-18.28s0.47-32.43 13.32-52.23a8.7 8.7 0 0 1 11-3l29.84 14.05s-11.5-6.69-20.75 59.46z" style="fill:#e6e6e6"/>
  <line x1="216.51" x2="195.07" y1="23.271" y2="11.511" style="fill:#e6e6e6"/>
  <path d="m217.27 21.971-21.44-11.8c-1.69-0.93-3.21 1.66-1.51 2.59l21.44 11.76c1.69 0.93 3.21-1.66 1.51-2.59z" style="fill:#999"/>
  <line x1="213.51" x2="192.07" y1="29.141" y2="17.391" style="fill:#e6e6e6"/>
  <path d="m214.27 27.851-21.44-11.76c-1.69-0.93-3.21 1.66-1.51 2.59l21.44 11.76c1.69 0.93 3.21-1.66 1.51-2.59z" style="fill:#999"/>
  <line x1="209.1" x2="187.66" y1="43.781" y2="32.031" style="fill:#e6e6e6"/>
  <path d="m209.86 42.491-21.44-11.76c-1.69-0.93-3.21 1.66-1.51 2.59l21.44 11.76c1.69 0.93 3.21-1.66 1.51-2.59z" style="fill:#999"/>
  <line x1="207.26" x2="185.82" y1="50.941" y2="39.191" style="fill:#e6e6e6"/>
  <path d="m208.02 49.651-21.44-11.76c-1.69-0.93-3.21 1.66-1.51 2.59l21.44 11.76c1.69 0.93 3.21-1.66 1.51-2.59z" style="fill:#999"/>
  <line x1="207.26" x2="185.82" y1="58.721" y2="46.971" style="fill:#e6e6e6"/>
  <path d="m208.02 57.431-21.44-11.76c-1.69-0.93-3.21 1.66-1.51 2.59l21.44 11.76c1.69 0.93 3.21-1.66 1.51-2.59z" style="fill:#999"/>
  <polyline transform="translate(-22.08 -5.8293)" points="246.91 40.52 249.16 39.43 249.16 41.75 251.44 40.98 251.44 43.16 254.11 42.27 254.11 44.81 256.46 43.85 256.69 46.4 258.59 45.31 258.89 47.76 260.8 46.4 260.8 48.94 262.93 47.59 263.13 50.38 260.34 50.38" style="fill:#fff"/>
  <path d="m148.92 88.061a52.34 52.34 0 0 0 1.6-5.05c0.2-1.21-1-5.81-0.16-6.07s1.89 2.86 1.89 2.86 2.5-5.64 3.18-5.91 2.71-0.45 3.2 0.06 1.84 3.8 1.24 4.92a64.16 64.16 0 0 1-4.22 5.76c-0.22 0.17-2.85 5.83-3.2 6s-3.25-1.3-3.53-2.57z" style="fill:#ffc9b5"/>
  <path d="m121.51 106.31s13.74-5.43 16.13-7.4c2.39-1.97 11-12.12 11-12.12s5 1.83 4.94 4.34c0 0-7 11.69-10.25 14.82s-15.11 11-17.71 10.82-4.11-10.46-4.11-10.46z" style="fill:#c93535"/>
  <path d="m130.28 217.52s3.28-2.8 7-1.72 2.92 3.84 0.6 5.57-11.25 7.74-14 7.68-3.35-2.27-3.41-3.79a70.16 70.16 0 0 1 0.81-7" style="fill:#2c1d1a"/>
  <path d="m128.23 217.32a0.7 0.7 0 0 0 0.92 0.57 26.85 26.85 0 0 0 2.93-1.12s3.17 0 1.24 3.17-8.58 4.1-10.63 2.92-0.68-4.54-0.68-4.54" style="fill:#2c1d1a"/>
  <path d="m138 223.7s3.28-2.8 7-1.72 2.92 3.84 0.6 5.57-11.25 7.74-14 7.68-3.35-2.27-3.41-3.79a70.16 70.16 0 0 1 0.81-7" style="fill:#2c1d1a"/>
  <path d="m135.92 223.51a0.7 0.7 0 0 0 0.92 0.57 26.85 26.85 0 0 0 2.93-1.12s3.17 0 1.24 3.17-8.58 4.1-10.63 2.92-0.68-4.54-0.68-4.54" style="fill:#ffc9b5"/>
  <path d="m139.4 137.24c1.07 2.42 1.65 37.07 1.24 46s-4.72 40.27-4.72 40.27-2.43 3.69-6.53 3.43-3.3-3.56-3.3-3.56-5.24 2.43-7.53-2.91c-0.85-2-4.84-57.21-4.84-63.5a43.87 43.87 0 0 1 6-21.36" style="fill:#2c1d1a"/>
  <path d="m126.12 223.37s-2.49-70-2.17-72.07-0.68 15.35-0.61 20.11c0.04 3.4 2.11 47.2 2.78 51.96z" style="fill:#6d5854"/>
  <path d="m139.4 137.24s3.62-24.79-1.53-29.47-19.46-8-22.13-5.67c-2.67 2.33 1.34 28.62 4 33.5s17.76 3.57 19.66 1.64z" style="fill:#ea5353"/>
  <path d="m132.92 89.541c0.12 0.35 2.66 10-1.77 11.4-4.43 1.4-5.32-3.89-5.76-4.19s-1.83-0.77-1.76-1.84 1.75-1.09 1.75-1.09 0.65-2.8 2.64-4 4.9-0.28 4.9-0.28z" style="fill:#ffc9b5"/>
  <path d="m128.75 92.261s3.7 0.06 5.3-1.52a3.11 3.11 0 0 0-0.26-4.57s1.47-2.93-1.29-3.64c0 0-0.25-2.69-5.75-1.46s-10.53 5.1-10.6 10.1-0.44 5.61-2.22 6.76-1.29 5.56 3.47 5.74 11.25-0.24 11.86-2.59c0.61-2.35-3-2.6-3.45-5a3.43 3.43 0 0 1 2.94-3.82z" style="fill:#2c1d1a"/>
  <path d="m146.55 133.67s3.81 4.06 4.91 4.5a34.11 34.11 0 0 1 4.84 2.71 8.51 8.51 0 0 0-1.35 1.54 0.52 0.52 0 0 0 0 0.06c-0.49-0.35-0.83-0.61-0.82-0.43 0 0.57 3.75 5.45 4.32 6.19s-1 3.16-1 3.16c-2.42 0.81-5.21-1.64-7-3.3s-2.62-5.5-3.24-6-5.73-3.87-6.09-4.92 5.43-3.51 5.43-3.51z" style="fill:#ffc9b5"/>
  <path d="m139.05 109.54c1 2.21 1 4.63 1.42 7 0.33 1.69 0.67 3.46 1.06 5.17a16.31 16.31 0 0 0 1.62 5c1.4 2.33 3.22 4.35 4.81 6.54a4 4 0 0 1 0.93 1.68c0.15 1.53-1.78 5.89-7.13 5.35a66.3 66.3 0 0 1-7.56-7.16c-3-3.53-5.84-15.47-5.55-19.44 0.2-2.7 1.67-5.72 4.23-6.9a4.48 4.48 0 0 1 5 1.13 6 6 0 0 1 1.17 1.63z" style="fill:#ea5353"/>
  <path d="m138.75 137.66s-4.47-3.8-5.57-6.09-2.53-6.41-2.53-6.41 2.07 11.91 4.05 13.5a22.92 22.92 0 0 0 4.05-1z" style="fill:#2c1d1a"/>
  <path d="m184.64 200.4-4.65-7.09-6.07-2.34-9.31 4.51-74 42.43 25.31 14.71c7.57-4.77 61.3-47.2 68.72-52.22z" style="fill:url(#linear-gradient-4);opacity:.48"/>
  <path d="m158.35 139.26c-9.16 0.69-8.68 17-9.3 23.71-0.16 1.7 2.22 2.26 2.38 0.56 0.52-5.62 0.17-13.24 3-18.19 0.88-1.53 1.93-3 3.73-3.17a3.83 3.83 0 0 1 3 1.29c0.8 0.8 1.23 3.94 1.37 4.88a43.87 43.87 0 0 1 0.16 10.53c-0.16 1.7 2.22 2.26 2.38 0.56 0.51-5.33 1.44-20.79-6.72-20.17z" style="fill:#8ccc00"/>
  <polyline transform="translate(-22.08 -5.8293)" points="194.13 156.01 196.88 161.05 202.39 162.31 198.26 177.94 186.55 169.62" style="fill:#dd842a"/>
  <polygon transform="translate(-22.08 -5.8293)" points="193.21 181.47 171.63 183.74 165.89 173.15 194.13 156.01" style="fill:#c13d3d"/>
  <polygon transform="translate(-22.08 -5.8293)" points="206.75 207.69 202.39 162.31 175.99 176.93 180.35 225.08" style="fill:#68e1fd"/>
  <polygon transform="translate(-22.08 -5.8293)" points="165.89 173.15 162.91 215.25 170.57 219.13 180.35 225.08 175.99 176.93 173.01 173.15" style="fill:#68e1fd"/>
  <polygon transform="translate(-22.08 -5.8293)" points="165.89 173.15 162.91 215.25 170.57 219.13 180.35 225.08 175.99 176.93 173.01 173.15" style="fill:#42210b;opacity:.14"/>
  <path d="m170.14 147.31c-9.18 0.09-9.59 16.36-10.57 23.06-0.25 1.68 2.1 2.41 2.35 0.71 0.82-5.58 0.89-13.21 4-18 1.27-1.95 3.51-3.59 5.71-2.31 2 1.14 2 3.7 2.19 5.84a43.85 43.85 0 0 1-0.41 10.52c-0.25 1.68 2.09 2.41 2.35 0.71 0.79-5.24 2.56-20.61-5.62-20.53z" style="fill:#8ccc00"/>
 </g>
</svg>
