<svg width="163.62" height="233.93" version="1.1" viewBox="0 0 259.73 327.38" xmlns="http://www.w3.org/2000/svg" xmlns:xlink="http://www.w3.org/1999/xlink">
 <defs>
  <linearGradient id="linear-gradient" x1="153.56" x2="341.67" y1="244.76" y2="109.44" gradientUnits="userSpaceOnUse">
   <stop stop-opacity="0" offset="0"/>
   <stop offset="1"/>
  </linearGradient>
  <linearGradient id="linear-gradient-2" x1="100.62" x2="237.06" y1="204.93" y2="106.04" xlink:href="#linear-gradient"/>
  <linearGradient id="linearGradient920" x1="153.56" x2="341.67" y1="244.76" y2="109.44" gradientUnits="userSpaceOnUse" xlink:href="#linear-gradient"/>
 </defs>
 <title>#11-20</title>
 <g transform="translate(-66.977 -7.713)" style="isolation:isolate">
  <g data-name="Layer 1">
   <path id="security-shadow" d="m71.666 267.83 114.65 66.19a14.58 14.58 0 0 0 14.57 0l120.18-69.17a6.15 6.15 0 0 0 0.1-10.59l-118.23-71.14a6.15 6.15 0 0 0-6.3 0l-125 74.12a6.15 6.15 0 0 0 0.03 10.59z" style="fill:#e4e4e4"/>
   <g id="security-platform">
    <path d="m74.23 206.29 114.65 66.19a14.58 14.58 0 0 0 14.57 0l120.18-69.17a6.15 6.15 0 0 0 0.1-10.59l-118.23-71.14a6.15 6.15 0 0 0-6.3 0l-125 74.12a6.15 6.15 0 0 0 0.03 10.59z" style="fill:#68e1fd"/>
    <path d="m266 49.52-73.82-41.93a4.81 4.81 0 0 0-4.71 0l-5 2.65 2.53 0.76a5 5 0 0 0-0.08 0.82l-1.42 148.18a11.62 11.62 0 0 0 5.91 10.23l74.14 41.86a5 5 0 0 0 0.46 0.22l-0.93 2.31 4.64-2.25a4.94 4.94 0 0 0 0.88-0.46 4.8 4.8 0 0 0 2.17-4v-150.17a9.45 9.45 0 0 0-4.77-8.22z" style="fill:#2c2cb5"/>
    <path d="m170.92 204.73-52.19 27.06s31.75 20.64 52.54 30.33l64.19-38.25" style="fill:url(#linearGradient920);mix-blend-mode:multiply;opacity:.62"/>
    <path d="m184.69 172.48 74.14 41.86a4.86 4.86 0 0 0 7.25-4.23v-150.11a9.45 9.45 0 0 0-4.78-8.22l-73.85-41.92a4.86 4.86 0 0 0-7.26 4.14l-1.41 148.2a11.62 11.62 0 0 0 5.91 10.28z" style="fill:#5f5cea"/>
    <polygon points="260.1 63.79 185.34 21.35 183.99 163.62 260.1 206.59" style="fill:#e2f2ee"/>
    <polygon points="252.77 165.13 252.77 133.65 239.68 125.77 239.68 156.88" style="fill:#68e1fd"/>
    <polygon points="243.54 140.95 243.54 134.67 240.71 132.87 240.71 139.08" style="fill:#5f5cea"/>
    <polygon points="247.51 143.14 247.51 136.86 244.69 135.06 244.69 141.27" style="fill:#5f5cea"/>
    <polygon points="251.49 145.47 251.49 139.19 248.66 137.39 248.66 143.6" style="fill:#5f5cea"/>
    <polygon points="243.54 149.04 243.54 142.75 240.71 140.95 240.71 147.16" style="fill:#5f5cea"/>
    <polygon points="247.51 151.23 247.51 144.94 244.69 143.14 244.69 149.35" style="fill:#5f5cea"/>
    <polygon points="251.49 153.56 251.49 147.27 248.66 145.47 248.66 151.69" style="fill:#5f5cea"/>
    <polygon points="243.54 157.09 243.54 150.81 240.71 149.01 240.71 155.22" style="fill:#5f5cea"/>
    <polygon points="247.51 159.28 247.51 153 244.69 151.2 244.69 157.41" style="fill:#5f5cea"/>
    <polygon points="251.49 161.62 251.49 155.33 248.66 153.53 248.66 159.74" style="fill:#5f5cea"/>
    <path d="m225.12 146.74a11.26 11.26 0 0 1 5.44 9.21q0 0.18 0 0.35a7.3 7.3 0 0 1-4.27 6.46 7.76 7.76 0 0 1-4.84 0.06c-3.7-1-8.28-3.47-10-7.07a7.6 7.6 0 0 1-0.24-6c1.15-3 4.27-4.62 7.35-4.84a10.91 10.91 0 0 1 6.56 1.83z" style="fill:#f8951d"/>
    <path d="m228.9 150.48-1.66 0.7a4.11 4.11 0 0 1-2.84-2.4c-0.16-0.39-0.81-0.22-0.64 0.18a4.8 4.8 0 0 0 2.53 2.59l-0.55 0.2c-1.8 0.64-4 1.41-5.92 1a2.28 2.28 0 0 1-1.83-3.16c0.73-1.53 2.74-2.24 4.22-2.75 0.68-0.23 1.36-0.44 2.06-0.61a10.67 10.67 0 0 0-5.73-1.29c-3.08 0.22-6.2 1.86-7.35 4.84a7.6 7.6 0 0 0 0.24 6c1.74 3.6 6.32 6 10 7.07a7.76 7.76 0 0 0 4.84-0.06 7.3 7.3 0 0 0 4.27-6.46q0-0.18 0-0.35a10.08 10.08 0 0 0-1.64-5.5z" style="fill:#393b5b"/>
    <path d="m214.79 157.93c-0.32-0.24-20.88 0.31-24.09 44.65l-12-6.9a11.86 11.86 0 0 0-6.83 11.84c0.61 8.8 27.68 23.45 39.29 19.51s6.48-31.71 6.48-31.71l6.76-15.89" style="fill:#393b5b"/>
    <path d="m213.77 216.18s12.43 4.18 14.34 1.69 10.93-22.21 5.65-28.62-16.65 0-20.34 3" style="fill:#393b5b"/>
    <path d="m226.58 218.46c1.53-0.58 8.19 2 9.27 1.38s1.35 7.5-6.71 5.56a61.59 61.59 0 0 1-14.35-5.51s2.08-6 5.3-6.38" style="fill:#393b5b"/>
    <path d="m248 150.48-0.44 0.49v-0.37a9.19 9.19 0 0 1 1-1.44 1.28 1.28 0 0 0-0.46-2l0.09-0.08c1.15-1.07-0.58-2.79-1.72-1.72l-0.92 0.83a1.33 1.33 0 0 0-1.75-0.11c-0.63 0.49-1.41 0.94-1.7 1.72a8.36 8.36 0 0 0-0.1 2.81v2.13c-0.21-0.38-0.43-0.76-0.66-1.12-0.84-1.31-2.93-0.12-2.11 1.23a20.72 20.72 0 0 1 1.63 3.24l0.1 0.27c-0.14 0.75-0.29 1.49-0.46 2.24a17.7 17.7 0 0 1-0.48 2.27 1.07 1.07 0 0 0-0.24 1.48 1.16 1.16 0 0 0 1.76 0.4 1.32 1.32 0 0 0 1.64-0.09 1.21 1.21 0 0 0 0.79 0 1.18 1.18 0 0 0 1.57 0.37c1.11-0.6 1.36-2.32 1.64-3.43a14.19 14.19 0 0 0 0.48-4.58v-0.11a14.85 14.85 0 0 1 2-2.64c1.15-1.21-0.57-2.94-1.66-1.79z" style="fill:#f8951d"/>
    <path d="m243.14 150.77 0.36 0.1a8.05 8.05 0 0 1 0.1-1.51c0.21-1.19 1.33-2.24 2.16-3.07a0.22 0.22 0 0 0-0.31-0.31 8.69 8.69 0 0 0-2.19 2.86 5.53 5.53 0 0 0-0.23 1.9z" style="fill:#393b5b"/>
    <path d="m247.91 146.8c-0.65 1-1.56 1.73-2.2 2.68a4.86 4.86 0 0 0-0.64 2.11q0.22 0.14 0.42 0.3a4.87 4.87 0 0 1 1-2.63 23 23 0 0 0 1.81-2.24c0.15-0.24-0.23-0.46-0.39-0.22z" style="fill:#393b5b"/>
    <path d="m247.25 151q-0.43 0.93-0.78 1.89l0.16 0.23a0.66 0.66 0 0 1 0.11 0.32c0.26-0.75 0.56-1.49 0.89-2.22 0.12-0.22-0.26-0.44-0.38-0.22z" style="fill:#393b5b"/>
    <path d="m226.29 162.77a4.83 4.83 0 0 0 2 4.54c2.43 1.5 12.72-10.42 12.72-10.42s4.73-0.38 5.68 5.4-14.31 19.9-22.29 20.89-13.72-7.58-13.72-7.58 1.07-16.57 5.94-17.68" style="fill:#393b5b"/>
    <polygon points="81.29 144.2 85.09 139.85 77.69 138.45 74.08 144.49 78.63 146.74" style="fill:#467ec1"/>
    <path d="m134.27 44.31-25.11 11.88-3.59 10.89-36.95 20.11a3.09 3.09 0 0 0-1.62 3.11l7 54.2 68.51-40-4.1-46.24c-0.1-1.92-1-8.75-1.58-12.49a1.86 1.86 0 0 0-2.56-1.46z" style="fill:#2c2cb5"/>
    <path d="m144.68 48.84-27.24 14.08-3.63 9-33.51 19.22a3.32 3.32 0 0 0-1.67 2.86v52.73l68.51-40v-54.73l-0.14-1.8a1.62 1.62 0 0 0-2.32-1.36z" style="fill:#68e1fd"/>
    <path d="m164.81 212.31a12.15 12.15 0 0 0 4.25 0.89 2.09 2.09 0 0 0 1.79-3.15 3.52 3.52 0 0 1 1.09-3.56c0.67-0.49 2.4 0.24 3.56 0.82a2.08 2.08 0 0 0 2.17-0.2l3.16-2.35a2.07 2.07 0 0 0-0.23-3.47c-3.84-2.14-10.45-5.64-11.6-5-1.64 1-6.61 9.79-6.63 12.05a5 5 0 0 0 1.63 3.46 2.12 2.12 0 0 0 0.81 0.51z" style="fill:#393b5b"/>
    <path d="m226.8 148.73a1.47 1.47 0 0 0-0.75-0.34c-0.11 0-0.25 0-0.27 0.15a0.74 0.74 0 0 0 0 0.25 0.21 0.21 0 0 0 0 0.19 1.38 1.38 0 0 0 0.58 0.58 0.49 0.49 0 0 0 0.68-0.12c0.16-0.27-0.04-0.55-0.24-0.71z" style="fill:#393b5b"/>
    <path d="m223 150.37a1.39 1.39 0 0 0-0.74-0.51 0.34 0.34 0 0 0-0.36 0.51 1 1 0 0 0 0.3 0.82 0.64 0.64 0 0 0 0.75 0 0.59 0.59 0 0 0 0.05-0.82z" style="fill:#393b5b"/>
    <path d="m227.31 124.13s6.68-4.34 6.74-4.39-4.45-3.49-4.45-3.49l-2.6 4.95" style="fill:#3d65af"/>
    <polyline points="201.38 71.8 207.34 67.91 208.82 75.78 202.78 74.56" style="fill:#3d65af"/>
    <path d="m209.65 67.72a2.12 2.12 0 0 0-3.18 1.79l-0.66 33.59a3 3 0 0 0 1.47 2.58l23.63 14.09a3 3 0 0 0 4.55-2.58v-32.84a3 3 0 0 0-1.56-2.64z" style="fill:#2c2cb5"/>
    <path d="m203.3 71.9a2.12 2.12 0 0 0-3.18 1.79l-0.66 33.59a3 3 0 0 0 1.47 2.58l23.63 14.14a3 3 0 0 0 4.55-2.58v-32.89a3 3 0 0 0-1.56-2.64z" style="fill:#5f5cea"/>
    <ellipse transform="rotate(-4.56 213.05 92.127)" cx="213.23" cy="92.14" rx="5.09" ry="8.08" style="fill:#68e1fd"/>
    <rect x="210.6" y="93.27" width="3.84" height="15.95" rx="1.42" ry="1.42" style="fill:#68e1fd"/>
    <ellipse cx="226.25" cy="81.28" rx="2.44" ry="1.47" style="fill:#68e1fd"/>
    <path d="m218.86 55.29c-11.43-2.75-11.34 10.48-11.34 10.48v4.73a4.89 4.89 0 0 0 0.19 2.06 2.76 2.76 0 0 0 2.15 0.81c0.68 0 1.66-0.11 2-0.73a4.16 4.16 0 0 0 0.17-1.79c-0.07-1.1-0.09-2.21-0.05-3.31 0.07-2.38 0.28-5.28 1.81-7.23a3.67 3.67 0 0 1 4.27-1.06c5.87 1.95 5.71 9 5.71 9v13h4.88v-13.34s-0.87-10.47-9.79-12.62z" style="fill:#68e1fd"/>
    <path d="m130.68 176-37.68 24.51s-8-1.21 12.76 8.49l41.14-26.75" style="fill:url(#linear-gradient-2);mix-blend-mode:multiply;opacity:.62"/>
    <path d="m125 171.81s1.81 10.92 12.9 11.91c14.76 1.32 15.52-11.91 15.52-11.91" style="fill:#68e1fd"/>
    <path d="m134 172h-9s1.64 9.87 11.35 11.69a12 12 0 0 1-2.35-11.69z" style="fill:#393b5b;opacity:.37"/>
    <ellipse cx="139.21" cy="171.81" rx="14.21" ry="4.22" style="fill:#393b5b"/>
    <path d="m152.77 162.55c-2.64-0.78-5.66 0.26-7.85 1.73a15.33 15.33 0 0 0-2 1.65 6.83 6.83 0 0 0-0.82 0.43c1.16-3.42 1.87-6.93 0.18-10.38-0.88-1.8-3.53-4.58-5.61-2.7a4.17 4.17 0 0 0-1.06 3.16 17.53 17.53 0 0 0 0.6 4.33c0.4 1.6 0.92 3.17 1.31 4.77q0.11 0.44 0.2 0.88a42.54 42.54 0 0 0-4.08-3.67c-0.3-0.23-0.61-0.44-0.94-0.64a9.14 9.14 0 0 0-5.3-2.62 5 5 0 0 0-3.63 0.71 3.18 3.18 0 0 0-1 3.37c0.63 2.84 3.18 5 5.56 6.41a18.47 18.47 0 0 0 8.7 2.6 0.79 0.79 0 0 0 0.55 0.23 37.59 37.59 0 0 0 9.55-0.94c2.63-0.61 5.86-1.42 7.67-3.6s0.56-4.95-2.03-5.72z" style="fill:#d9e021"/>
    <path d="m150.63 165.42c-2.76 2.81-6.5 4.14-9.93 5.94a83.28 83.28 0 0 0-1.31-16.44c-0.11-0.63-1.07-0.36-1 0.26a81.83 81.83 0 0 1 1.27 16.24q-6.83-4.67-13.49-9.58c-0.52-0.38-1 0.48-0.5 0.86q6.63 4.89 13.43 9.54l-0.62 0.39c-0.54 0.35 0 1.21 0.5 0.86l0.64-0.4v0.31c0 0.64 1 0.64 1 0v-0.13l0.35 0.24c0.53 0.36 1-0.5 0.5-0.86l-0.48-0.33c3.55-1.91 7.45-3.27 10.32-6.2 0.48-0.45-0.23-1.12-0.68-0.7z" style="fill:#393b5b"/>
   </g>
  </g>
 </g>
</svg>
