<svg viewBox="0 0 900 600" xmlns="http://www.w3.org/2000/svg" xmlns:xlink="http://www.w3.org/1999/xlink" version="1.1"><rect x="0" y="0" fill="#fff"></rect><g transform="translate(900, 0)"><path d="M0 513.8C-49.3 448.3 -98.5 382.9 -144.3 348.3C-190 313.7 -232.3 310 -293.4 293.4C-354.6 276.9 -434.8 247.7 -474.7 196.6C-514.6 145.6 -514.2 72.8 -513.8 0L0 0Z" fill="#732EB9"></path></g><g transform="translate(0, 600)"><path d="M0 -513.8C37.2 -426.5 74.5 -339.1 131.3 -316.9C188 -294.6 264.4 -337.5 328.8 -328.8C393.3 -320.1 445.8 -260 474.7 -196.6C503.5 -133.2 508.7 -66.6 513.8 0L0 0Z" fill="#732EB9"></path></g></svg>